<svg width="62" height="61" viewBox="0 0 62 61" fill="none" xmlns="http://www.w3.org/2000/svg">
<path d="M30.498 48.229C30.838 49.233 31.409 50.89 32.132 51.455C32.873 52.034 33.432 51.843 34.157 51.851C34.478 51.856 34.85 51.893 35.085 52.077C35.495 52.112 35.767 52.26 35.933 52.493C35.775 52.462 35.542 52.479 35.317 52.542L35.318 52.562C36.992 52.587 38.685 52.321 39.173 52.74C39.573 52.785 39.927 53.001 40.125 53.523C39.771 53.435 39.504 53.43 39.196 53.547C39.005 53.725 38.711 53.764 38.383 53.747C36.355 53.644 34.726 53.798 32.638 53.601C32.9 53.693 33.404 53.843 33.43 54.219C33.536 54.314 33.638 54.448 33.69 54.599C33.595 54.548 33.416 54.497 33.267 54.49C32.808 54.703 31.578 54.285 31.06 54.185C31.089 54.277 31.121 54.369 31.162 54.46C31.586 54.792 32.152 54.793 32.641 54.772C33.08 54.754 33.655 54.712 33.908 54.967C34.225 54.996 34.382 55.122 34.509 55.302C34.38 55.278 34.159 55.304 33.976 55.361C33.918 55.599 33.683 55.658 33.546 55.672C34.163 55.718 34.766 55.747 35.366 55.761C36.137 55.777 37.796 55.406 38.423 55.853C38.724 55.935 39.042 56.167 39.192 56.534C38.901 56.46 38.688 56.483 38.427 56.561C37.947 56.997 36.419 56.784 35.773 56.805C34.755 56.837 33.953 56.871 33.33 56.938C33.756 57.159 33.978 57.372 34.719 57.559C35.122 57.661 35.405 57.629 35.746 57.7C36.038 57.763 36.248 57.918 36.36 58.184C36.576 58.387 36.716 58.633 36.767 59.004C36.594 58.856 36.398 58.802 36.157 58.795C35.833 58.833 35.582 58.815 35.341 58.742C35.01 58.642 34.803 58.531 34.428 58.443C33.285 58.17 32.395 57.822 31.555 57.463C30.119 57.586 29.252 57.336 29.051 56.65C28.901 56.601 28.749 56.552 28.598 56.502C28.336 57.018 27.559 57.359 26.889 57.022C26.617 56.947 26.343 56.946 26.035 57.001C26.281 56.757 26.517 56.615 26.808 56.546C26.933 56.066 28.181 55.527 28.412 54.317C28.307 53.934 28.199 53.551 28.09 53.17C27.671 53.462 27.24 53.587 26.733 53.351C26.479 53.328 26.307 53.355 25.986 53.49C26.149 53.16 26.438 52.994 26.655 52.929C26.856 52.501 27.56 52.343 27.76 51.915C27.608 50.817 27.264 49.718 26.753 48.618C24.629 48.345 22.338 47.225 21.34 45.239C15.965 43.885 11.978 40.891 9.697 35.767C8.041 35.26 5.819 34.688 4.874 32.762C4.503 31.891 4.645 30.692 5.545 30.237C4.279 29.51 3.235 28.472 2.943 26.979C2.841 26.122 3.017 25.117 3.982 24.882C3.134 24.05 2.48 23.054 2.281 21.842C2.095 20.822 2.485 19.196 3.754 19.158C2.969 17.887 2.611 16.437 3.055 14.846C3.305 14.041 3.975 12.94 4.983 13.327C4.764 12.162 4.911 10.946 5.583 9.69C6.049 8.91 7.026 7.976 7.982 8.571C7.99 8.054 8.077 7.564 8.247 7.073C8.535 6.242 9.058 5.476 9.789 4.993C10.927 4.262 12.063 4.49 12.37 5.917C12.856 4.469 13.906 3.279 15.548 2.896C15.785 2.845 16.038 2.814 16.319 2.857C17.52 3.019 17.464 4.029 17.307 4.894C16.698 8.729 17.495 13.455 18.794 16.841C21.674 18.929 24.645 20.342 28.603 20.454C30.45 19.085 33.358 17.776 35.497 17.272C35.796 16.797 36.087 16.325 36.379 15.846C39.423 10.694 40.853 5.864 45.319 4.393C44.537 3.768 44.073 2.143 45.131 1.455C45.18 0.167 46.261 -0.105003 47.201 1.12C47.316 1.261 47.438 1.423 47.468 1.202C47.514 0.840998 47.621 0.424998 47.873 0.811998C48.121 1.161 48.254 1.8 48.453 1.1C48.533 0.857997 48.617 0.367996 48.891 1.01C49 1.268 49.056 1.504 49.137 1.764C49.227 2.049 49.329 2.207 49.475 1.97C49.529 1.881 49.534 1.819 49.572 1.728C49.661 1.5 49.778 1.571 49.86 1.797C49.923 1.971 49.96 2.136 50.001 2.303C50.075 2.592 50.35 3.016 50.543 2.497C50.587 2.41 50.634 2.143 50.722 2.143C50.843 2.143 50.917 2.429 50.997 2.76C51.151 3.413 51.403 3.77 51.634 4.175C52.064 4.941 52.421 5.954 51.812 6.878C52.164 7.05 52.848 7.496 53.175 8.313C52.483 8.274 52.294 8.591 51.16 8.495C52.167 10.218 50.901 12.733 48.585 12.12C47.947 18.287 53.88 32.328 41.978 41.117C40.554 43.432 36.988 45.25 34.289 45.248C33.68 46.627 32.146 47.761 30.498 48.229Z" fill="#006838"/>
<g opacity="0.6">
<g opacity="0.6">
<path opacity="0.6" d="M47.104 9.378C47.034 9.458 47.034 9.609 47.038 9.764C47.04 9.809 47.06 9.848 47.1 9.874C47.139 9.898 47.183 9.902 47.226 9.885C47.445 9.793 47.461 9.543 47.305 9.375C47.278 9.348 47.243 9.332 47.204 9.332C47.165 9.332 47.129 9.35 47.104 9.378Z" fill="white"/>
</g>
</g>
<g opacity="0.6">
<g opacity="0.6">
<path opacity="0.6" d="M46.247 6.99999C46.237 7.03899 46.237 7.07899 46.249 7.12199C46.265 7.18199 46.317 7.22299 46.38 7.22299C46.441 7.22499 46.493 7.18399 46.509 7.12299C46.521 7.08599 46.519 7.04399 46.509 7.00099C46.493 6.94099 46.441 6.89999 46.38 6.89999C46.317 6.89999 46.264 6.93899 46.247 6.99999Z" fill="white"/>
</g>
</g>
<g opacity="0.6">
<g opacity="0.6">
<path opacity="0.6" d="M49.493 25.822C49.449 25.797 49.391 25.785 49.32 25.786C49.303 25.881 49.339 25.924 49.372 25.968C49.399 26.005 49.443 26.026 49.487 26.024L49.493 25.822Z" fill="white"/>
</g>
</g>
<g opacity="0.6">
<g opacity="0.6">
<path opacity="0.6" d="M49.219 22.379C49.091 22.397 49.028 22.483 49.015 22.617C49.01 22.662 49.028 22.704 49.066 22.734C49.102 22.763 49.145 22.771 49.19 22.757C49.345 22.707 49.26 22.583 49.219 22.379Z" fill="white"/>
</g>
</g>
<g opacity="0.6">
<g opacity="0.6">
<path opacity="0.6" d="M48.77 26.646C48.641 26.825 48.829 26.932 48.947 27.07C48.985 27.114 49.044 27.13 49.098 27.108C49.151 27.087 49.186 27.034 49.182 26.975C49.178 26.821 49.071 26.631 48.911 26.592C48.856 26.579 48.802 26.601 48.77 26.646Z" fill="white"/>
</g>
</g>
<g opacity="0.6">
<g opacity="0.6">
<path opacity="0.6" d="M48.919 23.782V23.48H48.854C48.78 23.48 48.719 23.541 48.719 23.616V23.646C48.719 23.721 48.78 23.782 48.854 23.782H48.919Z" fill="white"/>
</g>
</g>
<g opacity="0.6">
<g opacity="0.6">
<path opacity="0.6" d="M48.01 21.816C47.976 21.636 47.853 21.545 47.712 21.472C47.666 21.447 47.615 21.451 47.572 21.48C47.529 21.509 47.508 21.556 47.515 21.607C47.538 21.82 47.648 21.949 47.86 21.976C47.906 21.981 47.944 21.966 47.975 21.934C48.006 21.902 48.018 21.861 48.01 21.816Z" fill="white"/>
</g>
</g>
<g opacity="0.6">
<g opacity="0.6">
<path opacity="0.6" d="M47.493 26.181C47.41 26.158 47.362 26.103 47.315 26.042C47.274 25.991 47.205 25.977 47.146 26.007C47.089 26.037 47.062 26.103 47.081 26.166C47.112 26.271 47.136 26.387 47.171 26.487C47.196 26.552 47.263 26.589 47.329 26.574C47.456 26.543 47.54 26.47 47.584 26.358C47.598 26.321 47.597 26.284 47.577 26.249C47.559 26.214 47.53 26.189 47.493 26.181Z" fill="white"/>
</g>
</g>
<g opacity="0.6">
<g opacity="0.6">
<path opacity="0.6" d="M46.409 12.316C46.388 12.307 46.37 12.299 46.351 12.292C46.309 12.275 46.264 12.28 46.226 12.308C46.188 12.334 46.167 12.373 46.167 12.418C46.168 12.483 46.153 12.547 46.113 12.559C46.045 12.535 45.991 12.498 45.955 12.444C45.925 12.393 45.865 12.37 45.809 12.385C45.752 12.398 45.711 12.445 45.706 12.505C45.706 12.508 45.706 12.512 45.706 12.514C45.701 12.588 45.757 12.65 45.828 12.657C45.986 12.672 46.057 12.749 46.139 12.805C46.176 12.826 46.215 12.832 46.256 12.819C46.297 12.806 46.326 12.777 46.341 12.737C46.37 12.655 46.409 12.561 46.414 12.559C46.459 12.535 46.488 12.487 46.486 12.436C46.485 12.383 46.456 12.338 46.409 12.316Z" fill="white"/>
</g>
</g>
<g opacity="0.6">
<g opacity="0.6">
<path opacity="0.6" d="M46.317 22.723C46.309 22.628 46.28 22.557 46.218 22.515C46.174 22.485 46.12 22.484 46.074 22.512C46.029 22.537 46.005 22.584 46.008 22.638C46.016 22.733 46.047 22.804 46.108 22.844C46.151 22.875 46.206 22.877 46.251 22.849C46.297 22.823 46.323 22.774 46.317 22.723Z" fill="white"/>
</g>
</g>
<g opacity="0.6">
<g opacity="0.6">
<path opacity="0.6" d="M45.712 22.857V22.814C45.712 22.74 45.652 22.678 45.576 22.678H45.423C45.348 22.678 45.287 22.739 45.287 22.814C45.287 22.972 45.418 23 45.584 22.992C45.656 22.988 45.712 22.928 45.712 22.857Z" fill="white"/>
</g>
</g>
<g opacity="0.6">
<g opacity="0.6">
<path opacity="0.6" d="M45.588 13.951C45.525 13.754 45.393 13.805 45.203 13.84C45.145 13.852 45.102 13.897 45.095 13.956C45.088 14.015 45.117 14.069 45.172 14.096C45.27 14.14 45.396 14.149 45.492 14.123C45.529 14.113 45.558 14.091 45.576 14.059C45.596 14.024 45.6 13.988 45.588 13.951Z" fill="white"/>
</g>
</g>
<g opacity="0.6">
<g opacity="0.6">
<path opacity="0.6" d="M45.01 25.586C44.923 25.44 44.862 25.27 44.61 25.285C44.581 25.551 44.75 25.615 45.01 25.586Z" fill="white"/>
</g>
</g>
<g opacity="0.6">
<g opacity="0.6">
<path opacity="0.6" d="M44.709 13.461C44.934 13.416 44.75 12.965 44.811 12.758C44.586 12.801 44.77 13.252 44.709 13.461Z" fill="white"/>
</g>
</g>
<g opacity="0.6">
<g opacity="0.6">
<path opacity="0.6" d="M44.717 8.28099C44.728 8.06499 44.614 7.974 44.545 7.838C44.515 7.779 44.448 7.75 44.387 7.77C44.197 7.827 44.1 7.976 43.972 8.094C43.923 8.141 43.914 8.213 43.951 8.27C44.076 8.458 44.433 8.514 44.648 8.393C44.691 8.369 44.715 8.32899 44.717 8.28099Z" fill="white"/>
</g>
</g>
<g opacity="0.6">
<g opacity="0.6">
<path opacity="0.6" d="M44.584 19.429C44.568 19.403 44.549 19.382 44.533 19.354C44.503 19.3 44.441 19.277 44.381 19.292C44.264 19.323 44.185 19.391 44.143 19.498C44.125 19.543 44.131 19.588 44.159 19.625C44.185 19.664 44.227 19.685 44.273 19.683C44.377 19.68 44.46 19.657 44.532 19.621C44.567 19.602 44.591 19.574 44.601 19.535C44.612 19.498 44.606 19.461 44.584 19.429Z" fill="white"/>
</g>
</g>
<g opacity="0.6">
<g opacity="0.6">
<path opacity="0.6" d="M44.485 11.957H44.338C44.265 11.957 44.204 12.016 44.202 12.09C44.201 12.292 44.237 12.455 44.427 12.463C44.48 12.466 44.527 12.438 44.552 12.391C44.595 12.311 44.62 12.216 44.62 12.092C44.62 12.018 44.558 11.957 44.485 11.957Z" fill="white"/>
</g>
</g>
<g opacity="0.6">
<g opacity="0.6">
<path opacity="0.6" d="M44.41 7.246C44.075 7.09 43.626 7.797 43.347 8.195C43.318 8.237 43.269 8.258 43.216 8.25C43.021 8.223 43.017 7.982 42.861 8.099C42.826 8.127 42.807 8.164 42.807 8.207V8.496C42.807 8.538 42.824 8.574 42.855 8.6C42.888 8.627 42.927 8.637 42.968 8.629C43.756 8.475 43.87 7.648 44.41 7.246Z" fill="white"/>
</g>
</g>
<g opacity="0.6">
<g opacity="0.6">
<path opacity="0.6" d="M44.02 11.798C44.03 11.676 44.022 11.573 43.925 11.557C43.914 11.556 43.903 11.553 43.893 11.548C43.766 11.492 43.729 11.64 43.75 11.806C43.762 11.874 43.818 11.924 43.889 11.922C43.958 11.92 44.014 11.866 44.02 11.798Z" fill="white"/>
</g>
</g>
<g opacity="0.6">
<g opacity="0.6">
<path opacity="0.6" d="M43.909 20.576V20.484C43.909 20.437 43.887 20.394 43.844 20.371C43.819 20.352 43.814 20.314 43.808 20.274H43.72C43.67 20.274 43.628 20.298 43.603 20.339C43.587 20.364 43.548 20.37 43.509 20.374V20.465C43.509 20.513 43.532 20.555 43.572 20.579C43.598 20.595 43.604 20.634 43.608 20.675H43.699C43.749 20.675 43.789 20.652 43.813 20.611C43.831 20.585 43.868 20.578 43.909 20.576Z" fill="white"/>
</g>
</g>
<g opacity="0.6">
<g opacity="0.6">
<path opacity="0.6" d="M43.388 31.044C43.348 30.873 43.242 30.767 43.014 30.783C42.941 30.788 42.883 30.849 42.889 30.923C42.893 31.038 42.972 31.081 43.001 31.171C43.014 31.211 43.041 31.239 43.078 31.257C43.117 31.273 43.156 31.269 43.193 31.25C43.224 31.233 43.256 31.216 43.291 31.206C43.362 31.187 43.405 31.115 43.388 31.044Z" fill="white"/>
</g>
</g>
<g opacity="0.6">
<g opacity="0.6">
<path opacity="0.6" d="M43.012 20.551C43.008 20.383 42.942 20.276 42.775 20.271C42.725 20.271 42.684 20.292 42.657 20.333C42.557 20.49 42.647 20.68 42.873 20.689C42.912 20.692 42.944 20.678 42.972 20.65C42.999 20.624 43.014 20.59 43.012 20.551Z" fill="white"/>
</g>
</g>
<g opacity="0.6">
<g opacity="0.6">
<path opacity="0.6" d="M43.006 12.559C43.024 12.34 42.923 12.241 42.705 12.257C42.688 12.477 42.788 12.576 43.006 12.559Z" fill="white"/>
</g>
</g>
<g opacity="0.6">
<g opacity="0.6">
<path opacity="0.6" d="M42.797 28.164C42.756 27.813 42.588 27.591 42.209 27.579C42.16 27.577 42.119 27.6 42.092 27.642C42.065 27.684 42.063 27.733 42.088 27.777C42.204 28.003 42.375 28.176 42.598 28.298C42.644 28.322 42.696 28.321 42.739 28.292C42.781 28.265 42.803 28.217 42.797 28.164Z" fill="white"/>
</g>
</g>
<g opacity="0.6">
<g opacity="0.6">
<path opacity="0.6" d="M42.333 7.76599C42.318 7.79499 42.308 7.82799 42.299 7.85999C42.281 7.92799 42.32 7.99899 42.389 8.02199C42.457 8.04199 42.529 8.00799 42.555 7.94299C42.566 7.91299 42.578 7.88699 42.584 7.85999C42.602 7.79199 42.565 7.72299 42.5 7.69999C42.436 7.67599 42.364 7.70299 42.333 7.76599Z" fill="white"/>
</g>
</g>
<g opacity="0.6">
<g opacity="0.6">
<path opacity="0.6" d="M40.563 8.199C40.622 8.213 40.684 8.222 40.747 8.23C40.785 8.235 40.819 8.226 40.848 8.203C40.877 8.18 40.894 8.15 40.899 8.112C40.918 7.946 41.023 7.866 41.021 7.679C41.019 7.646 41.009 7.616 40.99 7.592C40.844 7.79 40.703 7.992 40.563 8.199Z" fill="white"/>
</g>
</g>
<g opacity="0.6">
<g opacity="0.6">
<path opacity="0.6" d="M40.063 37.928C40.042 37.881 40.02 37.837 40.004 37.784C39.986 37.729 39.937 37.693 39.88 37.692C39.821 37.69 39.771 37.722 39.748 37.778C39.727 37.833 39.714 37.895 39.706 37.964C39.701 38.003 39.713 38.038 39.74 38.068C39.765 38.099 39.8 38.115 39.839 38.115H39.937C39.983 38.115 40.024 38.094 40.049 38.054C40.075 38.016 40.079 37.97 40.063 37.928Z" fill="white"/>
</g>
</g>
<g opacity="0.6">
<g opacity="0.6">
<path opacity="0.6" d="M39.799 12.258C39.776 12.082 39.627 12.029 39.399 12.058C39.383 12.338 39.682 12.385 39.799 12.258Z" fill="white"/>
</g>
</g>
<g opacity="0.6">
<g opacity="0.6">
<path opacity="0.6" d="M39.6 42.724C39.286 42.678 39.278 42.939 39.298 43.224C39.602 43.263 39.506 42.897 39.6 42.724Z" fill="white"/>
</g>
</g>
<g opacity="0.6">
<g opacity="0.6">
<path opacity="0.6" d="M39.198 37.913C39.155 37.79 39.07 37.708 38.897 37.714C38.881 37.808 38.916 37.851 38.95 37.896C38.991 37.951 39.065 37.967 39.126 37.931C39.145 37.921 39.167 37.913 39.198 37.913Z" fill="white"/>
</g>
</g>
<g opacity="0.6">
<g opacity="0.6">
<path opacity="0.6" d="M37.965 28.894C37.922 29.045 37.916 29.107 37.949 29.238C37.962 29.287 37.998 29.324 38.049 29.336C38.099 29.348 38.149 29.333 38.182 29.293C38.319 29.138 38.355 28.856 38.127 28.801C38.057 28.783 37.985 28.825 37.965 28.894Z" fill="white"/>
</g>
</g>
<g opacity="0.6">
<g opacity="0.6">
<path opacity="0.6" d="M37.79 55.987C37.72 56.035 37.694 56.125 37.714 56.211C37.728 56.267 37.771 56.306 37.826 56.315C37.882 56.323 37.934 56.297 37.963 56.249C37.984 56.211 37.997 56.164 38 56.108C38.006 56.055 37.981 56.006 37.935 55.98C37.889 55.954 37.834 55.956 37.79 55.987Z" fill="white"/>
</g>
</g>
<g opacity="0.6">
<g opacity="0.6">
<path opacity="0.6" d="M37.305 39.54C37.35 39.849 37.523 40.09 37.768 40.248C37.805 40.27 37.848 40.275 37.891 40.261C37.932 40.245 37.959 40.214 37.971 40.171C37.985 40.122 37.992 40.067 37.996 40.007C37.998 39.958 37.975 39.916 37.933 39.89C37.728 39.755 37.814 39.332 37.419 39.387C37.382 39.393 37.351 39.409 37.329 39.44C37.307 39.471 37.301 39.503 37.305 39.54Z" fill="white"/>
</g>
</g>
<g opacity="0.6">
<g opacity="0.6">
<path opacity="0.6" d="M36.993 17.068V16.767H36.929C36.855 16.767 36.794 16.829 36.794 16.902V16.933C36.794 17.007 36.855 17.068 36.929 17.068H36.993V17.068Z" fill="white"/>
</g>
</g>
<g opacity="0.6">
<g opacity="0.6">
<path opacity="0.6" d="M36.663 17.602C36.479 17.467 36.624 17.284 36.529 17.042C36.508 16.993 36.467 16.963 36.415 16.957C35.948 16.92 35.993 17.394 35.706 17.531C35.661 17.552 35.634 17.592 35.63 17.64C35.624 17.687 35.644 17.732 35.683 17.76C35.687 17.763 35.689 17.767 35.692 17.769C35.804 17.898 35.81 18.193 36.193 18.169C36.447 18.153 36.543 17.981 36.689 17.79C36.711 17.761 36.721 17.727 36.716 17.69C36.709 17.654 36.691 17.624 36.663 17.602Z" fill="white"/>
</g>
</g>
<g opacity="0.6">
<g opacity="0.6">
<path opacity="0.6" d="M36.392 58.356V58.292C36.392 58.218 36.331 58.157 36.256 58.157H35.991V58.221C35.991 58.295 36.052 58.356 36.127 58.356H36.392Z" fill="white"/>
</g>
</g>
<g opacity="0.6">
<g opacity="0.6">
<path opacity="0.6" d="M36.92 42.911C36.562 42.852 36.616 43.208 36.619 43.513C36.958 43.549 36.788 43.079 36.92 42.911Z" fill="white"/>
</g>
</g>
<g opacity="0.6">
<g opacity="0.6">
<path opacity="0.6" d="M35.992 33.704C36.009 33.61 35.973 33.567 35.941 33.522C35.899 33.465 35.825 33.45 35.765 33.484C35.745 33.495 35.721 33.503 35.691 33.503V33.569C35.691 33.643 35.753 33.704 35.826 33.704H35.992V33.704Z" fill="white"/>
</g>
</g>
<g opacity="0.6">
<g opacity="0.6">
<path opacity="0.6" d="M35.19 31.983V31.952C35.19 31.885 35.141 31.829 35.075 31.817C35.01 31.808 34.946 31.846 34.927 31.913C34.917 31.943 34.915 31.979 34.924 32.013C34.939 32.081 35.002 32.126 35.07 32.118C35.137 32.11 35.19 32.052 35.19 31.983Z" fill="white"/>
</g>
</g>
<g opacity="0.6">
<g opacity="0.6">
<path opacity="0.6" d="M38.938 36.772C39.411 36.298 38.383 36.815 38.838 36.873C38.958 36.888 38.891 36.819 38.938 36.772Z" fill="white"/>
</g>
</g>
<g opacity="0.6">
<g opacity="0.6">
<path opacity="0.6" d="M34.555 43.569V43.465C34.555 43.407 34.522 43.361 34.472 43.339C34.42 43.318 34.363 43.33 34.324 43.371C34.247 43.449 34.247 43.586 34.324 43.663C34.363 43.703 34.421 43.715 34.472 43.693C34.522 43.674 34.555 43.625 34.555 43.569Z" fill="white"/>
</g>
</g>
<g opacity="0.6">
<g opacity="0.6">
<path opacity="0.6" d="M33.763 19.094C33.473 19.127 33.375 19 33.401 18.817C33.409 18.762 33.382 18.711 33.335 18.682C33.285 18.655 33.228 18.66 33.183 18.696C33.101 18.762 33.042 18.854 33.007 18.968C32.989 19.033 33.021 19.1 33.082 19.127C33.155 19.162 33.241 19.184 33.349 19.184C33.386 19.184 33.419 19.196 33.445 19.224C33.472 19.25 33.486 19.285 33.484 19.322C33.48 19.48 33.478 19.635 33.551 19.716C33.577 19.747 33.588 19.782 33.583 19.821C33.579 19.86 33.559 19.893 33.526 19.915C33.467 19.957 33.428 20.019 33.487 20.177C33.87 19.972 33.981 19.669 33.912 19.208C33.901 19.136 33.834 19.086 33.763 19.094Z" fill="white"/>
</g>
</g>
<g opacity="0.6">
<g opacity="0.6">
<path opacity="0.6" d="M33.833 29.376C33.792 29.275 33.75 29.178 33.613 29.177C33.572 29.175 33.539 29.189 33.511 29.218C33.483 29.247 33.472 29.282 33.476 29.322C33.488 29.466 33.585 29.546 33.687 29.559C33.736 29.566 33.782 29.548 33.813 29.509C33.844 29.47 33.851 29.422 33.833 29.376Z" fill="white"/>
</g>
</g>
<g opacity="0.6">
<g opacity="0.6">
<path opacity="0.6" d="M42.171 38.596C42.135 38.697 42.178 38.816 42.205 38.974C42.215 39.036 42.266 39.079 42.327 39.084C42.39 39.089 42.445 39.052 42.465 38.991C42.508 38.864 42.486 38.714 42.42 38.579C42.395 38.528 42.345 38.501 42.29 38.505C42.235 38.51 42.19 38.544 42.171 38.596Z" fill="white"/>
</g>
</g>
<g opacity="0.6">
<g opacity="0.6">
<path opacity="0.6" d="M33.297 29.909C33.317 29.688 33.246 29.559 33.205 29.399C33.196 29.362 33.175 29.333 33.142 29.314C33.107 29.296 33.072 29.292 33.037 29.303C32.969 29.322 32.924 29.367 32.901 29.434C32.88 29.492 32.826 29.526 32.766 29.522C32.705 29.519 32.658 29.479 32.642 29.419C32.621 29.334 32.582 29.262 32.458 29.275C32.406 29.282 32.365 29.314 32.348 29.364C32.25 29.633 32.471 29.963 32.554 30.296C32.568 30.349 32.605 30.386 32.656 30.397C32.707 30.409 32.758 30.391 32.791 30.35C32.843 30.286 32.884 30.207 32.922 30.127C32.951 30.066 33.014 30.037 33.077 30.055C33.125 30.067 33.16 30.044 33.215 30.02C33.263 30.001 33.293 29.958 33.297 29.909Z" fill="white"/>
</g>
</g>
<g opacity="0.6">
<g opacity="0.6">
<path opacity="0.6" d="M33.059 57.894C33.097 57.812 33.073 57.665 33.085 57.556C32.909 57.577 32.867 57.718 32.912 57.844L33.059 57.894Z" fill="white"/>
</g>
</g>
<g opacity="0.6">
<g opacity="0.6">
<path opacity="0.6" d="M32.745 56.151C32.704 56.146 32.661 56.146 32.614 56.146C32.542 56.147 32.483 56.206 32.482 56.278C32.48 56.376 32.478 56.471 32.483 56.561C32.489 56.631 32.544 56.684 32.612 56.688C32.681 56.689 32.74 56.641 32.753 56.573C32.763 56.498 32.778 56.426 32.823 56.384C32.862 56.349 32.876 56.295 32.859 56.243C32.84 56.191 32.799 56.157 32.745 56.151Z" fill="white"/>
</g>
</g>
<g opacity="0.6">
<g opacity="0.6">
<path opacity="0.6" d="M32.884 37.111V37.093C32.884 37.042 32.858 37 32.815 36.975C32.77 36.952 32.718 36.954 32.676 36.981C32.652 36.997 32.624 37.008 32.583 37.01V37.028C32.583 37.079 32.609 37.122 32.652 37.147C32.699 37.17 32.749 37.169 32.792 37.141C32.817 37.126 32.846 37.112 32.884 37.111Z" fill="white"/>
</g>
</g>
<g opacity="0.6">
<g opacity="0.6">
<path opacity="0.6" d="M32.354 18.198C32.354 18.213 32.353 18.227 32.354 18.24C32.356 18.303 32.397 18.355 32.458 18.367C32.519 18.383 32.579 18.356 32.608 18.301C32.647 18.228 32.713 18.18 32.702 18.054V18.051C32.586 18.1 32.469 18.148 32.354 18.198Z" fill="white"/>
</g>
</g>
<g opacity="0.6">
<g opacity="0.6">
<path opacity="0.6" d="M32.235 44.53C32.016 44.609 32.016 45.047 32.235 45.126C32.273 45.14 32.309 45.138 32.342 45.12C32.377 45.101 32.4 45.075 32.41 45.036C32.465 44.854 32.465 44.802 32.41 44.618C32.399 44.581 32.377 44.554 32.342 44.536C32.309 44.519 32.273 44.517 32.235 44.53Z" fill="white"/>
</g>
</g>
<g opacity="0.6">
<g opacity="0.6">
<path opacity="0.6" d="M32.384 57.556C32.331 57.408 32.235 57.303 32.184 57.154C31.97 57.187 32.161 57.63 32.384 57.556Z" fill="white"/>
</g>
</g>
<g opacity="0.6">
<g opacity="0.6">
<path opacity="0.6" d="M32.083 56.196C32.075 56.169 32.064 56.139 32.053 56.11C32.031 56.052 31.975 56.018 31.915 56.024C31.854 56.032 31.808 56.074 31.794 56.132C31.79 56.157 31.786 56.184 31.784 56.211C31.778 56.277 31.821 56.338 31.886 56.355C31.892 56.356 31.899 56.358 31.906 56.362C31.957 56.382 32.008 56.372 32.047 56.337C32.084 56.298 32.1 56.247 32.083 56.196Z" fill="white"/>
</g>
</g>
<g opacity="0.6">
<g opacity="0.6">
<path opacity="0.6" d="M31.704 57.218C31.716 57.047 31.678 56.849 31.587 56.854C31.583 56.854 31.58 56.854 31.577 56.854C31.28 56.847 31.348 57.093 31.451 57.275C31.459 57.291 31.472 57.303 31.483 57.314L31.55 57.308L31.613 57.335C31.664 57.317 31.698 57.272 31.704 57.218Z" fill="white"/>
</g>
</g>
<g opacity="0.6">
<g opacity="0.6">
<path opacity="0.6" d="M31.368 47.628C31.233 47.571 31.162 47.704 31.153 47.851C31.264 47.808 31.376 47.758 31.487 47.708C31.471 47.672 31.443 47.644 31.396 47.636C31.385 47.635 31.377 47.631 31.368 47.628Z" fill="white"/>
</g>
</g>
<g opacity="0.6">
<g opacity="0.6">
<path opacity="0.6" d="M31.367 25.307C31.346 25.178 31.315 25.147 31.337 25.038C31.347 24.99 31.331 24.947 31.298 24.914C31.263 24.881 31.218 24.869 31.173 24.881C30.91 24.947 30.954 25.31 31.161 25.443C31.206 25.472 31.261 25.472 31.307 25.441C31.352 25.411 31.375 25.361 31.367 25.307Z" fill="white"/>
</g>
</g>
<g opacity="0.6">
<g opacity="0.6">
<path opacity="0.6" d="M30.754 53.077C30.715 53.129 30.689 53.186 30.684 53.245C30.681 53.308 30.72 53.364 30.78 53.383C30.843 53.402 30.906 53.376 30.938 53.32C30.958 53.286 30.973 53.248 30.989 53.207C31.013 53.144 30.987 53.075 30.928 53.041C30.869 53.007 30.795 53.023 30.754 53.077Z" fill="white"/>
</g>
</g>
<g opacity="0.6">
<g opacity="0.6">
<path opacity="0.6" d="M31.084 21.898C31.074 21.74 30.971 21.678 30.812 21.671C30.769 21.67 30.733 21.685 30.707 21.716C30.679 21.746 30.667 21.785 30.675 21.827C30.7 22.003 30.863 22.071 30.988 22.034C31.047 22.018 31.086 21.963 31.084 21.898Z" fill="white"/>
</g>
</g>
<g opacity="0.6">
<g opacity="0.6">
<path opacity="0.6" d="M30.345 19.189C30.549 19.191 30.682 19.122 30.797 19.036C30.832 19.01 30.852 18.973 30.852 18.93V18.916C30.68 19.006 30.511 19.097 30.345 19.189Z" fill="white"/>
</g>
</g>
<g opacity="0.6">
<g opacity="0.6">
<path opacity="0.6" d="M30.676 52.474C30.646 52.081 30.579 52.039 30.68 51.642C30.473 51.599 30.489 51.775 30.481 51.927C30.479 51.941 30.477 51.95 30.473 51.964C30.396 52.194 30.056 52.163 29.988 52.404C29.967 52.475 30.009 52.551 30.083 52.57C30.259 52.621 30.455 52.691 30.609 52.601C30.655 52.573 30.678 52.526 30.676 52.474Z" fill="white"/>
</g>
</g>
<g opacity="0.6">
<g opacity="0.6">
<path opacity="0.6" d="M30.68 48.837V48.605L30.655 48.531C30.548 48.515 30.522 48.578 30.493 48.64C30.472 48.683 30.475 48.728 30.499 48.767C30.524 48.808 30.563 48.83 30.61 48.831C30.634 48.831 30.659 48.833 30.68 48.837Z" fill="white"/>
</g>
</g>
<g opacity="0.6">
<g opacity="0.6">
<path opacity="0.6" d="M30.307 49.976C30.274 50.04 30.247 50.115 30.227 50.192C30.209 50.255 30.239 50.32 30.298 50.349C30.356 50.376 30.426 50.36 30.465 50.308C30.514 50.245 30.543 50.16 30.559 50.062C30.571 49.997 30.534 49.934 30.471 49.913C30.407 49.89 30.338 49.917 30.307 49.976Z" fill="white"/>
</g>
</g>
<g opacity="0.6">
<g opacity="0.6">
<path opacity="0.6" d="M30.479 22.681C30.458 22.62 30.425 22.569 30.378 22.532C30.332 22.499 30.272 22.497 30.225 22.53C30.175 22.562 30.154 22.618 30.166 22.675C30.204 22.816 30.37 22.789 30.479 22.681Z" fill="white"/>
</g>
</g>
<g opacity="0.6">
<g opacity="0.6">
<path opacity="0.6" d="M30.157 27.349C30.139 27.324 30.118 27.3 30.104 27.273C30.068 27.213 29.992 27.189 29.928 27.22C29.903 27.23 29.88 27.245 29.856 27.257C29.812 27.279 29.786 27.32 29.782 27.368C29.78 27.417 29.8 27.46 29.841 27.487C29.909 27.536 29.989 27.561 30.06 27.552C30.107 27.545 30.144 27.52 30.164 27.477C30.183 27.435 30.18 27.39 30.157 27.349Z" fill="white"/>
</g>
</g>
<g opacity="0.6">
<g opacity="0.6">
<path opacity="0.6" d="M29.358 54.155C29.21 54.357 29.21 54.653 29.241 54.911C29.249 54.972 29.294 55.018 29.356 55.027C29.415 55.038 29.473 55.006 29.499 54.949C29.58 54.764 29.573 54.491 29.602 54.252C29.61 54.19 29.576 54.133 29.517 54.11C29.459 54.087 29.396 54.104 29.358 54.155Z" fill="white"/>
</g>
</g>
<g opacity="0.6">
<g opacity="0.6">
<path opacity="0.6" d="M29.634 48.431C29.463 48.048 29.209 47.753 28.775 47.634C28.75 47.866 28.878 47.945 29.089 47.942C29.156 47.941 29.212 47.986 29.225 48.05C29.263 48.263 28.931 48.253 28.875 48.335C28.817 48.423 28.852 48.546 28.843 48.634C28.838 48.675 28.85 48.71 28.877 48.739C28.902 48.768 28.94 48.784 28.978 48.784C29.047 48.782 29.104 48.807 29.106 48.927C29.107 48.985 29.143 49.034 29.198 49.053C29.255 49.07 29.311 49.053 29.348 49.007C29.446 48.88 29.481 48.693 29.6 48.587C29.645 48.546 29.659 48.486 29.634 48.431Z" fill="white"/>
</g>
</g>
<g opacity="0.6">
<g opacity="0.6">
<path opacity="0.6" d="M29.42 51.731C29.14 51.691 29.143 51.933 28.928 51.958C28.888 51.963 28.854 51.981 28.83 52.017C28.809 52.052 28.801 52.09 28.814 52.13C28.851 52.255 28.911 52.358 29.015 52.417C29.05 52.438 29.091 52.44 29.13 52.425C29.384 52.325 29.7 52.078 29.511 51.79C29.493 51.758 29.459 51.736 29.42 51.731Z" fill="white"/>
</g>
</g>
<g opacity="0.6">
<g opacity="0.6">
<path opacity="0.6" d="M29.578 35.407C29.595 35.313 29.559 35.27 29.526 35.224C29.485 35.169 29.411 35.153 29.35 35.187C29.33 35.199 29.307 35.207 29.277 35.207V35.272C29.277 35.346 29.337 35.407 29.412 35.407H29.578V35.407Z" fill="white"/>
</g>
</g>
<g opacity="0.6">
<g opacity="0.6">
<path opacity="0.6" d="M29.377 29.294C29.322 29.087 29.221 29.081 29.075 29.194V29.211C29.075 29.263 29.101 29.306 29.146 29.33C29.191 29.354 29.241 29.353 29.284 29.325C29.309 29.31 29.338 29.296 29.377 29.294Z" fill="white"/>
</g>
</g>
<g opacity="0.6">
<g opacity="0.6">
<path opacity="0.6" d="M29.176 21.852V21.819C29.176 21.775 29.158 21.739 29.124 21.712C29.09 21.686 29.051 21.677 29.009 21.687C28.933 21.708 28.877 21.748 28.833 21.8C28.794 21.849 28.794 21.917 28.832 21.966C28.869 22.016 28.934 22.034 28.992 22.008C29.015 22 29.039 21.992 29.067 21.986C29.131 21.973 29.176 21.917 29.176 21.852Z" fill="white"/>
</g>
</g>
<g opacity="0.6">
<g opacity="0.6">
<path opacity="0.6" d="M29.042 31.152C29.051 31.008 29.019 30.849 28.992 30.647C28.987 30.604 28.963 30.568 28.925 30.547C28.887 30.524 28.845 30.523 28.804 30.54C28.562 30.646 28.631 30.906 28.65 31.174C28.653 31.223 28.679 31.264 28.724 31.287C28.766 31.309 28.816 31.307 28.857 31.28C28.863 31.275 28.869 31.275 28.878 31.277C28.918 31.287 28.957 31.278 28.99 31.252C29.022 31.229 29.04 31.194 29.042 31.152Z" fill="white"/>
</g>
</g>
<g opacity="0.6">
<g opacity="0.6">
<path opacity="0.6" d="M29.077 26.088V25.787H29.013C28.938 25.787 28.877 25.848 28.877 25.922V25.953C28.877 26.028 28.938 26.088 29.013 26.088H29.077V26.088Z" fill="white"/>
</g>
</g>
<g opacity="0.6">
<g opacity="0.6">
<path opacity="0.6" d="M28.728 42.806C28.599 42.818 28.552 42.912 28.473 42.974C28.436 43.005 28.418 43.05 28.425 43.099C28.432 43.148 28.463 43.185 28.506 43.205C28.561 43.227 28.629 43.234 28.707 43.231C28.757 43.227 28.797 43.202 28.82 43.157C28.849 43.1 28.867 43.032 28.873 42.952C28.877 42.91 28.864 42.874 28.834 42.845C28.805 42.815 28.768 42.804 28.728 42.806Z" fill="white"/>
</g>
</g>
<g opacity="0.6">
<g opacity="0.6">
<path opacity="0.6" d="M28.346 49.476C28.309 49.409 28.252 49.362 28.166 49.345C28.103 49.332 28.042 49.365 28.016 49.421C27.95 49.571 27.974 49.811 27.974 50.025C27.974 50.039 27.973 50.048 27.969 50.06C27.91 50.288 27.556 50.219 27.553 50.501C27.553 50.542 27.567 50.576 27.596 50.603C27.626 50.63 27.663 50.642 27.702 50.638C28.216 50.583 28.203 50.004 28.355 49.587C28.37 49.55 28.367 49.511 28.346 49.476Z" fill="white"/>
</g>
</g>
<g opacity="0.6">
<g opacity="0.6">
<path opacity="0.6" d="M27.8 27.612C27.774 27.675 27.768 27.758 27.768 27.849C27.769 27.903 27.799 27.949 27.846 27.971C27.894 27.992 27.948 27.986 27.989 27.951C28.075 27.88 28.09 27.738 28.053 27.623C28.035 27.567 27.989 27.531 27.93 27.529C27.874 27.526 27.823 27.56 27.8 27.612Z" fill="white"/>
</g>
</g>
<g opacity="0.6">
<g opacity="0.6">
<path opacity="0.6" d="M27.764 49.845C27.758 49.824 27.748 49.804 27.739 49.786C27.708 49.727 27.641 49.698 27.578 49.72C27.515 49.74 27.477 49.801 27.485 49.866C27.491 49.908 27.509 49.948 27.54 49.981C27.583 50.028 27.653 50.038 27.708 50.005C27.762 49.972 27.786 49.906 27.764 49.845Z" fill="white"/>
</g>
</g>
<g opacity="0.6">
<g opacity="0.6">
<path opacity="0.6" d="M27.69 47.891C28.053 47.754 27.57 47.427 27.491 47.691C27.475 47.739 27.628 47.913 27.69 47.891Z" fill="white"/>
</g>
</g>
<g opacity="0.6">
<g opacity="0.6">
<path opacity="0.6" d="M29.811 39.577V39.56C29.811 39.509 29.784 39.466 29.741 39.442C29.696 39.418 29.645 39.42 29.602 39.447C29.578 39.464 29.549 39.474 29.51 39.476V39.495C29.51 39.545 29.535 39.589 29.579 39.613C29.624 39.638 29.676 39.636 29.717 39.608C29.743 39.591 29.772 39.578 29.811 39.577Z" fill="white"/>
</g>
</g>
<g opacity="0.6">
<g opacity="0.6">
<path opacity="0.6" d="M25.392 39.624C25.172 39.639 25.176 39.876 25.192 40.124C25.409 40.11 25.407 39.873 25.392 39.624Z" fill="white"/>
</g>
</g>
<g opacity="0.6">
<g opacity="0.6">
<path opacity="0.6" d="M29.204 39.512C29.141 39.553 29.112 39.624 29.104 39.72C29.101 39.773 29.125 39.82 29.171 39.847C29.216 39.873 29.27 39.871 29.314 39.842C29.376 39.802 29.405 39.729 29.414 39.636C29.419 39.581 29.393 39.534 29.347 39.507C29.301 39.48 29.248 39.483 29.204 39.512Z" fill="white"/>
</g>
</g>
<g opacity="0.6">
<g opacity="0.6">
<path opacity="0.6" d="M26.837 34.66C26.588 34.827 26.685 35.257 26.963 35.378C27.027 35.407 27.106 35.378 27.137 35.314C27.23 35.12 27.127 34.88 27.032 34.709C27.012 34.674 26.983 34.651 26.944 34.643C26.906 34.633 26.87 34.64 26.837 34.66Z" fill="white"/>
</g>
</g>
<g opacity="0.6">
<g opacity="0.6">
<path opacity="0.6" d="M28.96 44.653C28.713 44.754 28.727 45.223 28.913 45.396C28.949 45.428 28.998 45.44 29.045 45.425C29.09 45.41 29.125 45.375 29.136 45.327C29.187 45.119 29.102 45.007 29.143 44.804C29.155 44.754 29.137 44.706 29.097 44.674C29.059 44.642 29.007 44.634 28.96 44.653Z" fill="white"/>
</g>
</g>
<g opacity="0.6">
<g opacity="0.6">
<path opacity="0.6" d="M26.277 56.79L26.255 56.813C26.333 56.806 26.411 56.803 26.485 56.806C26.471 56.784 26.448 56.766 26.421 56.756C26.368 56.738 26.314 56.751 26.277 56.79Z" fill="white"/>
</g>
</g>
<g opacity="0.6">
<g opacity="0.6">
<path opacity="0.6" d="M26.772 41.32C26.762 41.063 26.381 41.176 26.372 40.921C26.131 41.039 26.418 41.464 26.772 41.32Z" fill="white"/>
</g>
</g>
<g opacity="0.6">
<g opacity="0.6">
<path opacity="0.6" d="M26.371 42.674V42.659C26.371 42.584 26.31 42.523 26.235 42.523H26.219C26.168 42.523 26.126 42.547 26.102 42.591C26.077 42.635 26.079 42.686 26.105 42.729C26.12 42.752 26.139 42.772 26.165 42.787C26.206 42.815 26.257 42.816 26.302 42.792C26.344 42.769 26.371 42.724 26.371 42.674Z" fill="white"/>
</g>
</g>
<g opacity="0.6">
<g opacity="0.6">
<path opacity="0.6" d="M25.969 37.712C25.862 37.62 25.938 37.343 25.668 37.411C25.609 37.672 25.709 37.772 25.969 37.712Z" fill="white"/>
</g>
</g>
<g opacity="0.6">
<g opacity="0.6">
<path opacity="0.6" d="M25.703 44.323C25.62 44.372 25.542 44.427 25.506 44.522C25.488 44.574 25.444 44.608 25.39 44.612C25.333 44.614 25.286 44.587 25.261 44.54C25.23 44.481 25.193 44.433 25.091 44.446C25.027 44.455 24.978 44.509 24.975 44.574C24.964 44.835 25.181 44.935 25.347 44.813C25.393 44.779 25.454 44.778 25.503 44.809C25.591 44.87 25.613 44.993 25.675 45.081C25.706 45.126 25.761 45.146 25.814 45.136C25.868 45.125 25.908 45.084 25.918 45.032C25.973 44.766 26.022 44.534 25.877 44.354C25.833 44.304 25.761 44.29 25.703 44.323Z" fill="white"/>
</g>
</g>
<g opacity="0.6">
<g opacity="0.6">
<path opacity="0.6" d="M28.088 46.353C28.063 46.141 27.998 45.964 27.809 45.916C27.747 45.901 27.705 45.845 27.709 45.78C27.717 45.534 27.67 45.342 27.52 45.255C27.476 45.23 27.425 45.23 27.383 45.256C27.339 45.28 27.315 45.324 27.317 45.374C27.321 45.622 27.231 45.778 27.204 45.993C27.198 46.04 27.213 46.08 27.247 46.111C27.28 46.141 27.321 46.151 27.366 46.143C27.677 46.077 27.606 46.442 27.93 46.498C27.974 46.507 28.014 46.496 28.045 46.465C28.079 46.437 28.094 46.396 28.088 46.353Z" fill="white"/>
</g>
</g>
<g opacity="0.6">
<g opacity="0.6">
<path opacity="0.6" d="M25.068 34.405V34.104H25.003C24.929 34.104 24.868 34.166 24.868 34.239V34.27C24.868 34.344 24.929 34.405 25.003 34.405H25.068V34.405Z" fill="white"/>
</g>
</g>
<g opacity="0.6">
<g opacity="0.6">
<path opacity="0.6" d="M24.467 22.881C24.774 22.783 24.422 22.543 24.367 22.481C24.06 22.578 24.481 22.747 24.467 22.881Z" fill="white"/>
</g>
</g>
<g opacity="0.6">
<g opacity="0.6">
<path opacity="0.6" d="M27.324 46.48C27.107 46.52 27.061 46.272 26.813 46.215C26.75 46.2 26.708 46.145 26.708 46.081C26.71 45.974 26.69 45.886 26.66 45.81C26.645 45.777 26.62 45.749 26.582 45.738C26.546 45.724 26.511 45.726 26.477 45.744C26.048 45.959 26.023 46.775 26.077 47.264C26.082 47.306 26.105 47.34 26.142 47.364C26.177 47.386 26.218 47.389 26.259 47.375C26.321 47.353 26.387 47.321 26.45 47.304C26.494 47.291 26.526 47.259 26.54 47.214C26.555 47.17 26.546 47.126 26.517 47.091C26.501 47.068 26.492 47.042 26.496 47.013C26.498 47.007 26.498 47.001 26.498 46.996C26.514 46.751 26.644 46.62 26.889 46.606C26.897 46.604 26.903 46.604 26.909 46.602C27.192 46.54 27.041 46.915 27.356 46.821C27.391 46.811 27.415 46.791 27.432 46.761C27.453 46.727 27.469 46.69 27.479 46.648C27.493 46.601 27.481 46.557 27.449 46.52C27.415 46.487 27.371 46.473 27.324 46.48Z" fill="white"/>
</g>
</g>
<g opacity="0.6">
<g opacity="0.6">
<path opacity="0.6" d="M16.407 39.585C16.368 39.739 16.272 39.862 16.28 40.019C16.284 40.08 16.323 40.126 16.382 40.142C16.441 40.157 16.499 40.133 16.528 40.082C16.607 39.96 16.664 39.784 16.673 39.624C16.676 39.556 16.626 39.497 16.558 39.484C16.488 39.476 16.422 39.517 16.407 39.585Z" fill="white"/>
</g>
</g>
<g opacity="0.6">
<g opacity="0.6">
<path opacity="0.6" d="M23.659 33.538C23.596 33.579 23.569 33.653 23.561 33.747C23.556 33.799 23.581 33.847 23.625 33.874C23.674 33.899 23.727 33.898 23.771 33.868C23.83 33.828 23.861 33.755 23.868 33.663C23.873 33.609 23.849 33.561 23.801 33.534C23.756 33.509 23.704 33.51 23.659 33.538Z" fill="white"/>
</g>
</g>
<g opacity="0.6">
<g opacity="0.6">
<path opacity="0.6" d="M23.454 45.515C23.187 45.75 23.056 46.119 22.987 46.556C22.981 46.603 22.995 46.644 23.03 46.677C23.067 46.708 23.112 46.718 23.158 46.704C23.628 46.571 23.934 45.968 23.656 45.542C23.634 45.508 23.602 45.486 23.561 45.481C23.52 45.476 23.485 45.486 23.454 45.515Z" fill="white"/>
</g>
</g>
<g opacity="0.6">
<g opacity="0.6">
<path opacity="0.6" d="M23.115 33.87C23.042 34.015 23.087 34.243 23.263 34.296C23.326 34.314 23.392 34.285 23.42 34.226C23.505 34.06 23.468 33.794 23.233 33.796C23.183 33.796 23.137 33.824 23.115 33.87Z" fill="white"/>
</g>
</g>
<g opacity="0.6">
<g opacity="0.6">
<path opacity="0.6" d="M23.264 41.021C23.046 41.003 23.219 41.376 23.162 41.521C23.5 41.43 23.213 41.333 23.264 41.021Z" fill="white"/>
</g>
</g>
<g opacity="0.6">
<g opacity="0.6">
<path opacity="0.6" d="M22.877 41.978C22.867 42.037 22.837 42.076 22.809 42.116C22.776 42.167 22.779 42.232 22.817 42.277C22.856 42.324 22.921 42.34 22.975 42.316C23.114 42.253 23.177 42.087 23.14 41.962C23.121 41.902 23.067 41.863 23.002 41.866C22.94 41.87 22.889 41.915 22.877 41.978Z" fill="white"/>
</g>
</g>
<g opacity="0.6">
<g opacity="0.6">
<path opacity="0.6" d="M22.77 44.585C22.761 44.411 22.666 44.321 22.488 44.318C22.425 44.317 22.371 44.357 22.354 44.419C22.343 44.462 22.324 44.494 22.306 44.528C22.284 44.571 22.284 44.62 22.309 44.661C22.332 44.704 22.375 44.727 22.424 44.727H22.635C22.674 44.727 22.707 44.713 22.733 44.686C22.761 44.657 22.772 44.622 22.77 44.585Z" fill="white"/>
</g>
</g>
<g opacity="0.6">
<g opacity="0.6">
<path opacity="0.6" d="M24.569 45.465C24.383 45.515 24.358 45.6 24.434 45.718C24.457 45.755 24.462 45.794 24.45 45.833C24.38 46.046 24.212 46.282 24.208 46.483C24.208 46.54 24.241 46.588 24.292 46.61C24.345 46.633 24.401 46.62 24.44 46.579C24.643 46.37 24.702 45.46 24.569 45.465Z" fill="white"/>
</g>
</g>
<g opacity="0.6">
<g opacity="0.6">
<path opacity="0.6" d="M22.362 34.606V34.305H22.298C22.222 34.305 22.163 34.366 22.163 34.44V34.47C22.163 34.545 22.222 34.606 22.298 34.606H22.362Z" fill="white"/>
</g>
</g>
<g opacity="0.6">
<g opacity="0.6">
<path opacity="0.6" d="M41.774 34.83C41.743 35.034 41.613 35.177 41.725 35.337C41.76 35.388 41.821 35.407 41.878 35.39C42.094 35.32 42.168 34.908 42 34.752C41.963 34.716 41.912 34.704 41.863 34.722C41.814 34.74 41.782 34.78 41.774 34.83Z" fill="white"/>
</g>
</g>
<g opacity="0.6">
<g opacity="0.6">
<path opacity="0.6" d="M21.961 35.007V34.706C21.832 34.673 21.805 34.743 21.773 34.81C21.753 34.853 21.755 34.899 21.779 34.937C21.804 34.978 21.843 35 21.89 35.001C21.916 35.001 21.938 35.004 21.961 35.007Z" fill="white"/>
</g>
</g>
<g opacity="0.6">
<g opacity="0.6">
<path opacity="0.6" d="M21.86 45.529V45.227H21.796C21.722 45.227 21.661 45.29 21.661 45.363V45.393C21.661 45.468 21.722 45.529 21.796 45.529H21.86V45.529Z" fill="white"/>
</g>
</g>
<g opacity="0.6">
<g opacity="0.6">
<path opacity="0.6" d="M21.059 33.303V33.238C21.059 33.164 20.998 33.103 20.924 33.103H20.758V33.22C20.758 33.271 20.783 33.315 20.828 33.339C20.873 33.362 20.924 33.361 20.966 33.333C20.993 33.317 21.02 33.304 21.059 33.303Z" fill="white"/>
</g>
</g>
<g opacity="0.6">
<g opacity="0.6">
<path opacity="0.6" d="M20.758 37.813C20.61 37.865 20.506 37.961 20.358 38.013C20.444 38.39 20.8 38.127 20.758 37.813Z" fill="white"/>
</g>
</g>
<g opacity="0.6">
<g opacity="0.6">
<path opacity="0.6" d="M20.358 19.545V19.447C20.358 19.386 20.319 19.336 20.262 19.318C20.205 19.3 20.145 19.324 20.111 19.374C20.096 19.395 20.081 19.416 20.061 19.434C20.026 19.467 20.011 19.514 20.021 19.563C20.032 19.612 20.065 19.647 20.112 19.663C20.143 19.673 20.177 19.679 20.216 19.681C20.255 19.683 20.288 19.669 20.316 19.644C20.343 19.616 20.358 19.584 20.358 19.545Z" fill="white"/>
</g>
</g>
<g opacity="0.6">
<g opacity="0.6">
<path opacity="0.6" d="M15.708 39.603C15.735 39.397 15.595 39.358 15.485 39.287C15.441 39.258 15.389 39.256 15.343 39.282C15.297 39.31 15.274 39.355 15.278 39.408C15.282 39.488 15.297 39.582 15.299 39.661C15.303 39.705 15.322 39.742 15.358 39.766C15.394 39.79 15.436 39.797 15.477 39.783C15.534 39.763 15.578 39.732 15.628 39.709C15.672 39.689 15.702 39.652 15.708 39.603Z" fill="white"/>
</g>
</g>
<g opacity="0.6">
<g opacity="0.6">
<path opacity="0.6" d="M19.556 18.872V18.807C19.556 18.733 19.496 18.672 19.421 18.672H19.255V18.789C19.255 18.84 19.28 18.883 19.324 18.908C19.37 18.931 19.421 18.93 19.463 18.902C19.49 18.887 19.516 18.873 19.556 18.872Z" fill="white"/>
</g>
</g>
<g opacity="0.6">
<g opacity="0.6">
<path opacity="0.6" d="M16.002 27.008C15.852 27.084 15.773 27.233 15.628 27.314C15.586 27.337 15.561 27.377 15.559 27.424C15.555 27.472 15.575 27.514 15.616 27.542C15.69 27.595 15.79 27.629 15.899 27.649C15.952 27.659 16 27.64 16.032 27.598C16.124 27.477 16.203 27.342 16.198 27.126C16.198 27.076 16.174 27.036 16.134 27.012C16.092 26.989 16.045 26.987 16.002 27.008Z" fill="white"/>
</g>
</g>
<g opacity="0.6">
<g opacity="0.6">
<path opacity="0.6" d="M18.954 31.424V31.304C18.954 31.24 18.911 31.185 18.848 31.171C18.52 31.102 18.337 31.204 18.423 31.511C18.439 31.568 18.488 31.605 18.546 31.609C18.687 31.615 18.794 31.59 18.882 31.546C18.927 31.521 18.954 31.477 18.954 31.424Z" fill="white"/>
</g>
</g>
<g opacity="0.6">
<g opacity="0.6">
<path opacity="0.6" d="M18.754 34.506C18.498 34.376 18.486 34.837 18.588 34.972C18.621 35.017 18.625 35.077 18.592 35.126C18.469 35.315 18.27 35.429 18.252 35.726C18.249 35.783 18.277 35.83 18.325 35.853C18.412 35.899 18.519 35.925 18.657 35.918C18.718 35.914 18.768 35.874 18.783 35.816C18.885 35.415 18.772 34.795 18.754 34.506Z" fill="white"/>
</g>
</g>
<g opacity="0.6">
<g opacity="0.6">
<path opacity="0.6" d="M18.454 39.517C18.153 39.415 18.276 39.74 18.254 39.918C18.429 39.894 18.481 39.744 18.454 39.517Z" fill="white"/>
</g>
</g>
<g opacity="0.6">
<g opacity="0.6">
<path opacity="0.6" d="M18.353 24.136V24.032C18.353 23.975 18.321 23.928 18.27 23.907C18.217 23.886 18.162 23.897 18.122 23.936C18.044 24.015 18.044 24.152 18.122 24.23C18.162 24.271 18.218 24.282 18.27 24.26C18.321 24.24 18.353 24.19 18.353 24.136Z" fill="white"/>
</g>
</g>
<g opacity="0.6">
<g opacity="0.6">
<path opacity="0.6" d="M18.153 38.72V38.667C18.153 38.629 18.139 38.597 18.112 38.571C18.087 38.545 18.053 38.531 18.018 38.531C17.87 38.531 17.788 38.467 17.679 38.429C17.625 38.412 17.569 38.426 17.532 38.471C17.497 38.515 17.491 38.574 17.518 38.621C17.625 38.818 17.836 38.904 18.05 38.85C18.112 38.837 18.153 38.784 18.153 38.72Z" fill="white"/>
</g>
</g>
<g opacity="0.6">
<g opacity="0.6">
<path opacity="0.6" d="M17.647 42.353C17.602 42.678 17.315 42.984 17.68 43.023C17.721 43.029 17.757 43.015 17.787 42.988C17.816 42.961 17.832 42.925 17.83 42.883C17.816 42.583 18.015 42.329 17.836 42.25C17.797 42.231 17.755 42.232 17.718 42.254C17.678 42.274 17.655 42.31 17.647 42.353Z" fill="white"/>
</g>
</g>
<g opacity="0.6">
<g opacity="0.6">
<path opacity="0.6" d="M17.641 17.867C17.378 17.81 17.411 18.127 17.477 18.326C17.497 18.379 17.544 18.415 17.602 18.416C17.659 18.418 17.709 18.387 17.732 18.334C17.786 18.202 17.788 18.008 17.719 17.917C17.7 17.892 17.672 17.873 17.641 17.867Z" fill="white"/>
</g>
</g>
<g opacity="0.6">
<g opacity="0.6">
<path opacity="0.6" d="M17.42 17.447C17.425 17.242 17.334 16.978 17.151 16.89C17.105 16.867 17.054 16.872 17.014 16.902C16.972 16.931 16.952 16.976 16.956 17.027C16.983 17.248 17.066 17.412 17.188 17.538C17.226 17.577 17.282 17.59 17.333 17.569C17.386 17.549 17.418 17.502 17.42 17.447Z" fill="white"/>
</g>
</g>
<g opacity="0.6">
<g opacity="0.6">
<path opacity="0.6" d="M17.141 23.58C16.953 23.576 16.762 23.568 16.635 23.623C16.574 23.649 16.542 23.714 16.557 23.777C16.643 24.142 17.325 24.236 17.272 23.703C17.266 23.635 17.209 23.583 17.141 23.58Z" fill="white"/>
</g>
</g>
<g opacity="0.6">
<g opacity="0.6">
<path opacity="0.6" d="M16.582 2.758C16.558 2.827 16.534 2.897 16.501 2.959C16.476 3.006 16.427 3.032 16.372 3.029C16.317 3.025 16.267 3.027 16.22 3.032C16.169 3.039 16.128 3.07 16.109 3.12C16.091 3.167 16.101 3.218 16.135 3.257C16.304 3.445 16.142 3.734 16.15 4.141C16.282 4.174 16.332 4.124 16.359 4.055C16.38 4.004 16.426 3.971 16.48 3.969C16.536 3.968 16.583 3.997 16.607 4.047C16.632 4.105 16.671 4.152 16.753 4.154C16.812 4.154 16.86 4.123 16.882 4.068C16.958 3.878 16.896 3.834 16.79 3.757C16.756 3.733 16.737 3.696 16.735 3.653C16.733 3.61 16.749 3.57299 16.782 3.54499C16.915 3.43199 17.039 3.263 17.108 3.069C16.983 2.933 16.815 2.826 16.582 2.758Z" fill="white"/>
</g>
</g>
<g opacity="0.6">
<g opacity="0.6">
<path opacity="0.6" d="M16.95 34.906C17.02 34.53 16.192 34.663 16.348 35.007C16.584 35.009 16.645 34.835 16.95 34.906Z" fill="white"/>
</g>
</g>
<g opacity="0.6">
<g opacity="0.6">
<path opacity="0.6" d="M16.458 11.525C16.452 11.345 16.358 11.252 16.179 11.246C16.142 11.246 16.107 11.259 16.079 11.286C16.054 11.312 16.039 11.347 16.04 11.386C16.047 11.567 16.14 11.658 16.318 11.665C16.357 11.665 16.391 11.652 16.419 11.625C16.447 11.598 16.459 11.564 16.458 11.525Z" fill="white"/>
</g>
</g>
<g opacity="0.6">
<g opacity="0.6">
<path opacity="0.6" d="M16.054 10.328C16.049 10.16 15.985 10.054 15.817 10.049C15.768 10.049 15.725 10.07 15.7 10.112C15.599 10.267 15.686 10.46 15.913 10.467C15.954 10.469 15.986 10.455 16.015 10.428C16.042 10.401 16.055 10.367 16.054 10.328Z" fill="white"/>
</g>
</g>
<g opacity="0.6">
<g opacity="0.6">
<path opacity="0.6" d="M15.585 35.106H14.898C14.857 35.106 14.819 35.124 14.793 35.159C14.768 35.192 14.758 35.231 14.769 35.274C14.844 35.582 15.084 35.723 15.309 35.883C15.336 35.901 15.365 35.908 15.399 35.904C15.837 35.87 15.91 35.444 15.693 35.159C15.667 35.124 15.629 35.106 15.585 35.106Z" fill="white"/>
</g>
</g>
<g opacity="0.6">
<g opacity="0.6">
<path opacity="0.6" d="M15.448 11.055V10.754H15.382C15.308 10.754 15.246 10.815 15.246 10.889V10.92C15.246 10.994 15.308 11.055 15.382 11.055H15.448V11.055Z" fill="white"/>
</g>
</g>
<g opacity="0.6">
<g opacity="0.6">
<path opacity="0.6" d="M15.347 41.021C15.448 40.719 15.123 40.843 14.947 40.82C14.969 40.995 15.118 41.048 15.347 41.021Z" fill="white"/>
</g>
</g>
<g opacity="0.6">
<g opacity="0.6">
<path opacity="0.6" d="M15.28 31.777C15.194 31.74 15.132 31.676 15.048 31.635C15.003 31.614 14.953 31.617 14.913 31.647C14.872 31.674 14.85 31.719 14.853 31.769C14.872 31.969 14.913 32.147 15.011 32.264C15.045 32.303 15.092 32.319 15.143 32.307C15.194 32.295 15.231 32.262 15.245 32.211C15.274 32.101 15.362 32.043 15.361 31.898C15.36 31.845 15.329 31.799 15.28 31.777Z" fill="white"/>
</g>
</g>
<g opacity="0.6">
<g opacity="0.6">
<path opacity="0.6" d="M14.852 14.471C14.831 14.479 14.812 14.487 14.791 14.497C14.732 14.527 14.706 14.595 14.725 14.657C14.746 14.72 14.807 14.76 14.871 14.75C14.916 14.746 14.956 14.726 14.988 14.696C15.035 14.652 15.046 14.582 15.011 14.527C14.979 14.473 14.913 14.449 14.852 14.471Z" fill="white"/>
</g>
</g>
<g opacity="0.6">
<g opacity="0.6">
<path opacity="0.6" d="M14.718 7.72899C14.332 7.49999 14.155 8.42499 13.842 8.74999C13.689 8.91199 13.625 9.64799 13.725 9.99399C13.734 10.033 13.758 10.06 13.793 10.079C14.035 10.201 14.334 10.292 14.62 10.203C14.688 10.183 14.729 10.111 14.711 10.041C14.495 9.17999 15.289 8.53899 14.76 7.76899C14.749 7.75199 14.737 7.74099 14.718 7.72899Z" fill="white"/>
</g>
</g>
<g opacity="0.6">
<g opacity="0.6">
<path opacity="0.6" d="M7.67401 17.666C7.62701 17.574 7.61301 17.447 7.61501 17.31C7.61501 17.264 7.59501 17.225 7.55901 17.2C7.52301 17.174 7.48001 17.167 7.43701 17.181C7.34101 17.212 7.26101 17.235 7.22601 17.17C7.20601 17.131 7.17101 17.106 7.12801 17.1C7.08301 17.094 7.04301 17.106 7.01301 17.137C6.83901 17.307 6.68301 17.495 6.71101 17.867C6.71401 17.912 6.73701 17.947 6.77301 17.971C7.11701 18.189 7.43101 18.078 7.65701 17.815C7.69401 17.773 7.70001 17.717 7.67401 17.666Z" fill="white"/>
</g>
</g>
<g opacity="0.6">
<g opacity="0.6">
<path opacity="0.6" d="M14.276 32.937C14.249 32.931 14.228 32.911 14.22 32.869C14.209 32.814 14.17 32.775 14.117 32.763C14.063 32.75 14.012 32.77 13.978 32.814C13.933 32.873 13.892 32.938 13.847 32.996C13.818 33.032 13.81 33.078 13.824 33.124C13.841 33.169 13.875 33.2 13.92 33.212C14.027 33.235 14.154 33.23 14.275 33.2C14.336 33.186 14.379 33.134 14.379 33.07C14.379 33.006 14.336 32.95 14.276 32.937Z" fill="white"/>
</g>
</g>
<g opacity="0.6">
<g opacity="0.6">
<path opacity="0.6" d="M14.433 16.012C14.419 16 14.405 15.985 14.391 15.969C14.361 15.932 14.315 15.913 14.266 15.92C14.216 15.928 14.178 15.959 14.162 16.006C14.147 16.042 14.141 16.084 14.139 16.131C14.136 16.174 14.154 16.213 14.186 16.24C14.22 16.267 14.259 16.277 14.304 16.267C14.341 16.259 14.372 16.245 14.404 16.229C14.442 16.208 14.468 16.173 14.474 16.128C14.48 16.083 14.465 16.043 14.433 16.012Z" fill="white"/>
</g>
</g>
<g opacity="0.6">
<g opacity="0.6">
<path opacity="0.6" d="M14.362 11.152C14.211 11.097 13.95 11.147 13.944 11.246C13.942 11.254 13.942 11.261 13.94 11.269C13.876 11.554 14.219 11.476 14.377 11.4C14.429 11.375 14.455 11.326 14.452 11.27C14.448 11.216 14.415 11.17 14.362 11.152Z" fill="white"/>
</g>
</g>
<g opacity="0.6">
<g opacity="0.6">
<path opacity="0.6" d="M13.708 14.18C13.669 14.241 13.644 14.314 13.632 14.385C13.622 14.453 13.663 14.517 13.728 14.534C13.795 14.555 13.864 14.521 13.89 14.458C13.915 14.401 13.943 14.346 13.954 14.277C13.968 14.213 13.932 14.15 13.871 14.127C13.811 14.104 13.744 14.125 13.708 14.18Z" fill="white"/>
</g>
</g>
<g opacity="0.6">
<g opacity="0.6">
<path opacity="0.6" d="M13.924 12.424C13.906 12.391 13.881 12.365 13.863 12.333C13.83 12.27 13.752 12.244 13.686 12.274C13.62 12.305 13.578 12.361 13.494 12.373C13.433 12.382 13.39 12.428 13.379 12.487C13.371 12.546 13.4 12.603 13.455 12.629C13.573 12.684 13.75 12.668 13.866 12.611C13.902 12.594 13.924 12.567 13.935 12.529C13.948 12.494 13.943 12.458 13.924 12.424Z" fill="white"/>
</g>
</g>
<g opacity="0.6">
<g opacity="0.6">
<path opacity="0.6" d="M13.596 10.231C13.551 10.177 13.477 10.152 13.385 10.146C13.346 10.144 13.313 10.158 13.283 10.183C13.256 10.209 13.242 10.244 13.242 10.281V10.318C13.242 10.392 13.303 10.454 13.377 10.454H13.493C13.547 10.454 13.592 10.425 13.614 10.376C13.638 10.326 13.629 10.271 13.596 10.231Z" fill="white"/>
</g>
</g>
<g opacity="0.6">
<g opacity="0.6">
<path opacity="0.6" d="M13.208 33.392C13.142 33.24 13.052 33.32 13.016 33.419C12.98 33.518 12.997 33.639 13.144 33.567C13.208 33.536 13.237 33.458 13.208 33.392Z" fill="white"/>
</g>
</g>
<g opacity="0.6">
<g opacity="0.6">
<path opacity="0.6" d="M13.141 9.35199C13.091 9.10099 13.145 8.74699 12.84 8.74999C12.975 8.91699 12.805 9.38699 13.141 9.35199Z" fill="white"/>
</g>
</g>
<g opacity="0.6">
<g opacity="0.6">
<path opacity="0.6" d="M12.485 36.573C12.467 36.62 12.459 36.672 12.452 36.73C12.446 36.795 12.485 36.855 12.549 36.874C12.612 36.892 12.679 36.864 12.708 36.804C12.732 36.757 12.743 36.695 12.747 36.626C12.751 36.557 12.704 36.499 12.638 36.487C12.573 36.474 12.506 36.509 12.485 36.573Z" fill="white"/>
</g>
</g>
<g opacity="0.6">
<g opacity="0.6">
<path opacity="0.6" d="M12.741 16.867C12.564 16.891 12.512 17.039 12.542 17.267C12.842 17.369 12.718 17.045 12.741 16.867Z" fill="white"/>
</g>
</g>
<g opacity="0.6">
<g opacity="0.6">
<path opacity="0.6" d="M11.939 34.104V34.04C11.939 33.964 11.879 33.905 11.804 33.905H11.639V34.021C11.639 34.072 11.664 34.116 11.708 34.14C11.754 34.164 11.804 34.162 11.846 34.135C11.872 34.119 11.9 34.106 11.939 34.104Z" fill="white"/>
</g>
</g>
<g opacity="0.6">
<g opacity="0.6">
<path opacity="0.6" d="M11.658 16.596C11.636 16.668 11.653 16.758 11.679 16.848C11.698 16.913 11.758 16.953 11.824 16.948C11.89 16.942 11.94 16.889 11.945 16.823C11.95 16.747 11.939 16.664 11.916 16.595C11.895 16.537 11.844 16.502 11.785 16.504C11.726 16.504 11.675 16.541 11.658 16.596Z" fill="white"/>
</g>
</g>
<g opacity="0.6">
<g opacity="0.6">
<path opacity="0.6" d="M11.539 36.009C11.392 36.097 11.222 36.159 11.238 36.409C11.501 36.44 11.567 36.271 11.539 36.009Z" fill="white"/>
</g>
</g>
<g opacity="0.6">
<g opacity="0.6">
<path opacity="0.6" d="M11.438 33.202C11.381 32.994 11.282 32.991 11.137 33.101V33.12C11.137 33.17 11.163 33.214 11.207 33.238C11.252 33.262 11.303 33.26 11.346 33.233C11.37 33.218 11.4 33.205 11.438 33.202Z" fill="white"/>
</g>
</g>
<g opacity="0.6">
<g opacity="0.6">
<path opacity="0.6" d="M11.239 29.094C11.282 28.708 10.483 28.933 10.636 29.294C10.989 29.174 10.967 29.147 11.239 29.094Z" fill="white"/>
</g>
</g>
<g opacity="0.6">
<g opacity="0.6">
<path opacity="0.6" d="M10.862 13.556C10.458 13.557 10.401 14.026 10.585 14.219C10.615 14.25 10.655 14.266 10.7 14.26C10.975 14.227 11.096 13.859 10.985 13.631C10.959 13.584 10.917 13.556 10.862 13.556Z" fill="white"/>
</g>
</g>
<g opacity="0.6">
<g opacity="0.6">
<path opacity="0.6" d="M10.407 35.62C10.313 35.692 10.229 35.808 10.18 35.936C10.162 35.985 10.17 36.036 10.203 36.073C10.238 36.112 10.287 36.13 10.338 36.116C10.389 36.104 10.443 36.098 10.506 36.1C10.548 36.1 10.582 36.084 10.61 36.055C10.635 36.024 10.647 35.991 10.643 35.95C10.635 35.877 10.622 35.796 10.624 35.732C10.625 35.678 10.598 35.631 10.551 35.606C10.502 35.583 10.449 35.588 10.407 35.62Z" fill="white"/>
</g>
</g>
<g opacity="0.6">
<g opacity="0.6">
<path opacity="0.6" d="M10.636 21.177C11.11 20.703 10.082 21.221 10.535 21.278C10.657 21.292 10.589 21.224 10.636 21.177Z" fill="white"/>
</g>
</g>
<g opacity="0.6">
<g opacity="0.6">
<path opacity="0.6" d="M10.436 11.957C10.373 11.713 9.92999 11.902 10.036 12.156C10.309 12.23 10.238 11.959 10.436 11.957Z" fill="white"/>
</g>
</g>
<g opacity="0.6">
<g opacity="0.6">
<path opacity="0.6" d="M10.036 14.062C10.156 14.028 10.117 13.795 10.036 13.761C9.81899 13.67 9.80299 14.129 10.036 14.062Z" fill="white"/>
</g>
</g>
<g opacity="0.6">
<g opacity="0.6">
<path opacity="0.6" d="M9.548 13.185C9.592 12.864 9.38499 12.797 9.27399 12.633C9.24299 12.589 9.192 12.568 9.138 12.576C8.784 12.636 8.57599 12.569 8.37699 12.658C8.33299 12.679 8.305 12.718 8.299 12.765C8.293 12.814 8.31299 12.857 8.34999 12.888C8.52699 13.029 8.77999 13.096 8.82899 13.363C8.83799 13.406 8.86199 13.437 8.89899 13.458C8.93599 13.477 8.978 13.479 9.015 13.463C9.161 13.4 9.323 13.353 9.469 13.291C9.512 13.271 9.542 13.233 9.548 13.185Z" fill="white"/>
</g>
</g>
<g opacity="0.6">
<g opacity="0.6">
<path opacity="0.6" d="M9.06099 11.999C9.08799 12.109 9.12699 12.209 9.16799 12.307C9.18999 12.36 9.23799 12.39 9.29499 12.39C9.34999 12.389 9.39699 12.356 9.41799 12.304C9.48599 12.129 9.41799 11.867 9.21299 11.834C9.16799 11.824 9.12299 11.84 9.09299 11.874C9.06099 11.91 9.04899 11.953 9.06099 11.999Z" fill="white"/>
</g>
</g>
<g opacity="0.6">
<g opacity="0.6">
<path opacity="0.6" d="M8.723 32.545C8.737 32.355 8.799 32.115 8.636 32.101C8.633 32.101 8.629 32.101 8.627 32.099C8.379 32.059 8.356 32.413 8.473 32.605C8.502 32.656 8.561 32.68 8.62 32.668C8.678 32.651 8.718 32.604 8.723 32.545Z" fill="white"/>
</g>
</g>
<g opacity="0.6">
<g opacity="0.6">
<path opacity="0.6" d="M8.43 14.008C8.429 14.004 8.427 13.997 8.424 13.99C8.414 13.951 8.389 13.922 8.352 13.904C8.315 13.886 8.276 13.886 8.239 13.902C8.2 13.92 8.166 13.945 8.137 13.974C8.095 14.015 8.086 14.078 8.114 14.132C8.141 14.183 8.198 14.211 8.257 14.201C8.277 14.196 8.294 14.194 8.314 14.194C8.359 14.19 8.398 14.171 8.42 14.131C8.444 14.094 8.449 14.051 8.43 14.008Z" fill="white"/>
</g>
</g>
<g opacity="0.6">
<g opacity="0.6">
<path opacity="0.6" d="M8.422 7.71399C8.383 7.70399 8.34401 7.69599 8.30301 7.68799C8.25001 7.67599 8.201 7.69499 8.169 7.73699C8.137 7.77799 8.131 7.83099 8.152 7.87799C8.169 7.91299 8.19001 7.94599 8.20601 7.97999C8.22501 8.02099 8.259 8.04699 8.301 8.05599C8.344 8.06599 8.385 8.05599 8.416 8.02699C8.449 7.99899 8.47 7.96099 8.494 7.92499C8.522 7.88799 8.529 7.84299 8.514 7.80199C8.499 7.75599 8.465 7.72599 8.422 7.71399Z" fill="white"/>
</g>
</g>
<g opacity="0.6">
<g opacity="0.6">
<path opacity="0.6" d="M8.131 28.894V28.593H8.065C7.991 28.593 7.931 28.654 7.931 28.728V28.759C7.931 28.833 7.991 28.894 8.065 28.894H8.131V28.894Z" fill="white"/>
</g>
</g>
<g opacity="0.6">
<g opacity="0.6">
<path opacity="0.6" d="M7.547 8.89899C7.505 9.03499 7.531 9.23799 7.534 9.41899C7.534 9.49199 7.595 9.553 7.67 9.553H7.766C7.817 9.553 7.862 9.52499 7.885 9.47999C7.967 9.32299 7.822 9.172 7.813 8.935C7.809 8.868 7.758 8.81499 7.694 8.80599C7.627 8.79699 7.567 8.83699 7.547 8.89899Z" fill="white"/>
</g>
</g>
<g opacity="0.6">
<g opacity="0.6">
<path opacity="0.6" d="M7.33 30.697C7.011 30.608 7.157 30.982 7.13 31.097C7.069 31.346 6.98299 31.649 7.02899 31.899C7.51999 31.79 7.106 31.192 7.33 30.697Z" fill="white"/>
</g>
</g>
<g opacity="0.6">
<g opacity="0.6">
<path opacity="0.6" d="M6.787 25.94C6.716 26.051 6.715 26.204 6.778 26.319C6.803 26.368 6.856 26.394 6.911 26.387C7.251 26.348 7.361 25.824 6.886 25.876C6.842 25.883 6.809 25.905 6.787 25.94Z" fill="white"/>
</g>
</g>
<g opacity="0.6">
<g opacity="0.6">
<path opacity="0.6" d="M7.12901 12.758V12.457H7.06301C6.98901 12.457 6.92801 12.52 6.92801 12.592V12.623C6.92801 12.697 6.98901 12.758 7.06301 12.758H7.12901V12.758Z" fill="white"/>
</g>
</g>
<g opacity="0.6">
<g opacity="0.6">
<path opacity="0.6" d="M6.828 27.591V27.527C6.828 27.452 6.768 27.391 6.693 27.391H6.528V27.507C6.528 27.558 6.553 27.603 6.599 27.626C6.643 27.651 6.693 27.649 6.735 27.622C6.759 27.604 6.79 27.593 6.828 27.591Z" fill="white"/>
</g>
</g>
<g opacity="0.6">
<g opacity="0.6">
<path opacity="0.6" d="M6.828 13.26C6.597 13.328 6.559 13.593 6.327 13.661C6.438 13.861 6.905 13.576 6.828 13.26Z" fill="white"/>
</g>
</g>
<g opacity="0.6">
<g opacity="0.6">
<path opacity="0.6" d="M6.12601 13.761C5.84001 13.776 5.943 14.178 5.926 14.462C6.307 14.543 6.05301 13.988 6.12601 13.761Z" fill="white"/>
</g>
</g>
<g opacity="0.6">
<g opacity="0.6">
<path opacity="0.6" d="M5.526 26.442V26.612C5.526 26.678 5.573 26.734 5.639 26.745C5.704 26.758 5.768 26.718 5.787 26.655C5.82 26.557 5.82 26.448 5.775 26.373C5.743 26.321 5.682 26.297 5.625 26.313C5.565 26.329 5.526 26.382 5.526 26.442Z" fill="white"/>
</g>
</g>
<g opacity="0.6">
<g opacity="0.6">
<path opacity="0.6" d="M5.725 24.184C5.873 23.891 5.278 23.891 5.424 24.184H5.725Z" fill="white"/>
</g>
</g>
<g opacity="0.6">
<g opacity="0.6">
<path opacity="0.6" d="M5.07301 15.949C5.03601 15.881 4.99301 15.816 4.95801 15.746C4.93201 15.688 4.87101 15.659 4.81101 15.672C4.70301 15.695 4.63601 15.758 4.55601 15.809C4.51701 15.834 4.49501 15.87 4.49201 15.913C4.48901 15.956 4.50601 15.997 4.53901 16.027C4.65601 16.129 4.84201 16.186 4.99201 16.142C5.03301 16.13 5.06201 16.103 5.07801 16.064C5.09401 16.025 5.09101 15.986 5.07301 15.949Z" fill="white"/>
</g>
</g>
<g opacity="0.6">
<g opacity="0.6">
<path opacity="0.6" d="M3.84 15.732C3.81 15.776 3.793 15.832 3.781 15.892C3.769 15.959 3.808 16.027 3.873 16.048C3.939 16.068 4.01 16.035 4.037 15.973C4.055 15.931 4.07 15.888 4.082 15.841C4.098 15.776 4.066 15.71 4.007 15.685C3.947 15.657 3.877 15.678 3.84 15.732Z" fill="white"/>
</g>
</g>
<g opacity="0.6">
<g opacity="0.6">
<path opacity="0.6" d="M3.72099 28.192C3.66799 27.931 3.54999 27.985 3.42999 28.115C3.45399 28.155 3.47699 28.194 3.50299 28.232C3.55699 28.183 3.62699 28.159 3.72099 28.192Z" fill="white"/>
</g>
</g>
<g opacity="0.6">
<g opacity="0.6">
<path opacity="0.6" d="M3.32101 21.879C3.46701 21.586 2.87201 21.586 3.02001 21.879H3.32101Z" fill="white"/>
</g>
</g>
<g opacity="0.6">
<g opacity="0.6">
<path opacity="0.6" d="M2.325 20.848C2.321 20.772 2.307 20.709 2.274 20.662C2.258 20.767 2.24701 20.873 2.24001 20.977C2.29201 20.956 2.327 20.906 2.325 20.848Z" fill="white"/>
</g>
</g>
<g opacity="0.6">
<g opacity="0.6">
<path opacity="0.6" d="M38.984 39.141C39.089 38.97 39.119 38.74 38.904 38.712C38.841 38.704 38.794 38.657 38.786 38.596C38.745 38.281 38.7 38.763 38.735 39.083C38.741 39.142 38.782 39.187 38.839 39.201C38.895 39.214 38.953 39.19 38.984 39.141Z" fill="white"/>
</g>
</g>
<g opacity="0.6">
<g opacity="0.6">
<path opacity="0.6" d="M36.928 35.12C36.942 35.416 37.135 35.74 37.496 35.53C37.531 35.509 37.554 35.476 37.56 35.434C37.568 35.393 37.557 35.354 37.528 35.324C37.433 35.217 37.242 35.144 37.175 35.043C37.142 34.989 37.079 34.966 37.02 34.985C36.962 35.003 36.924 35.059 36.928 35.12Z" fill="white"/>
</g>
</g>
<g opacity="0.6">
<g opacity="0.6">
<path opacity="0.6" d="M31.325 43.171C31.089 43.058 30.831 43.368 30.872 43.757C30.876 43.81 30.851 43.86 30.805 43.887C30.715 43.939 30.603 43.967 30.563 44.068C30.541 44.127 30.558 44.191 30.609 44.227C30.658 44.265 30.725 44.263 30.775 44.222C31.028 44.011 31.086 43.601 31.349 43.401C31.387 43.372 31.405 43.328 31.4 43.279C31.395 43.231 31.367 43.192 31.325 43.171Z" fill="white"/>
</g>
</g>
<g opacity="0.6">
<g opacity="0.6">
<path opacity="0.6" d="M19.202 32.421C19.195 32.407 19.188 32.394 19.184 32.38C19.161 32.331 19.116 32.301 19.061 32.301C18.854 32.296 18.635 32.282 18.506 32.359C18.471 32.38 18.449 32.412 18.442 32.453C18.407 32.652 18.52 32.705 18.596 32.793C18.645 32.849 18.729 32.856 18.786 32.809C18.885 32.721 18.991 32.62 19.084 32.616C19.131 32.615 19.17 32.591 19.194 32.552C19.219 32.509 19.221 32.463 19.202 32.421Z" fill="white"/>
</g>
</g>
<g opacity="0.6">
<g opacity="0.6">
<path opacity="0.6" d="M16.184 20.906C15.986 20.984 15.922 21.197 15.866 21.418C15.849 21.479 15.878 21.54 15.932 21.57C15.989 21.599 16.055 21.587 16.098 21.54C16.119 21.516 16.137 21.494 16.149 21.478C16.247 21.339 16.358 21.214 16.369 21.04C16.372 20.992 16.352 20.951 16.313 20.923C16.276 20.895 16.228 20.889 16.184 20.906Z" fill="white"/>
</g>
</g>
<g opacity="0.6">
<g opacity="0.6">
<path opacity="0.6" d="M15.949 37.212C16.313 37.14 15.936 36.629 15.647 36.609C15.654 36.903 16.03 36.829 15.949 37.212Z" fill="white"/>
</g>
</g>
<g opacity="0.6">
<g opacity="0.6">
<path opacity="0.6" d="M12.241 38.413C12.091 38.297 11.996 38.124 11.739 38.114C11.702 38.418 12.066 38.321 12.241 38.413Z" fill="white"/>
</g>
</g>
<g opacity="0.6">
<g opacity="0.6">
<path opacity="0.6" d="M12.04 15.564C11.705 15.697 11.615 16.076 11.339 16.265C11.37 16.526 11.665 16.115 11.739 16.065C11.852 15.99 12.168 15.755 12.04 15.564Z" fill="white"/>
</g>
</g>
<g opacity="0.6">
<g opacity="0.6">
<path opacity="0.6" d="M17.356 4.40899C17.22 4.28299 17.02 4.26699 16.836 4.31299C16.783 4.32599 16.746 4.36699 16.736 4.41799C16.666 4.80399 16.474 5.06899 16.375 5.42899C16.356 5.49699 16.396 5.56999 16.465 5.59299C16.793 5.69699 17.065 5.47599 17.238 5.19699C17.258 5.04299 17.28 4.88899 17.302 4.73899C17.323 4.63099 17.34 4.51999 17.356 4.40899Z" fill="white"/>
</g>
</g>
<g opacity="0.6">
<g opacity="0.6">
<path opacity="0.6" d="M24.967 25.225C26.196 25.272 27.582 23.311 26.053 23.311C24.792 23.311 23.676 25.176 24.967 25.225Z" fill="white"/>
</g>
</g>
<path d="M39.7 26.819C39.7 27.823 37.196 31.234 36.129 31.203C37.038 28.843 39.7 25.494 39.7 26.819ZM30.357 30.165C31.616 28.108 32.732 26.931 33.514 26.931C34.024 26.931 34.23 27.185 34.23 27.568C34.23 28.652 32.524 30.756 31.265 30.756C30.916 30.756 30.596 30.581 30.357 30.165ZM14.939 23.152C16.725 23.2 15.879 25.718 12.42 24.57C13.282 23.709 14.174 23.152 14.939 23.152ZM47.989 29.178C47.145 30.66 45.135 33.21 44.419 33.21C43.366 33.21 46.077 28.843 47.462 26.962C47.671 26.691 47.656 26.372 47.353 26.26C45.934 25.703 42.078 30.005 40.753 31.441C41.262 30.455 41.964 29.402 43.716 26.962C44.101 26.435 42.825 25.671 42.267 26.308C41.496 27.203 40.32 29.177 39.451 30.922C38.494 32.179 37.42 33.241 36.703 33.275C36.146 33.291 35.844 33.035 35.844 32.48C35.844 32.287 35.875 32.064 35.939 31.824H36.098C37.707 31.824 40.53 28.652 40.53 27.074C40.53 26.166 40.02 25.99 39.478 25.99C37.619 25.99 35.188 29.166 34.503 31.517C32.865 33.58 31.381 34.17 30.582 31.347C30.9 31.585 31.234 31.697 31.602 31.697C33.355 31.697 35.395 29.132 35.395 27.457C35.395 25.575 33.196 25.735 31.874 27.297C33.165 25.416 34.743 23.552 35.206 22.818C35.3 22.675 35.333 22.533 35.333 22.404C35.333 22.069 34.999 21.863 34.632 21.863C34.376 21.863 34.107 21.959 33.93 22.197C32.359 24.347 29.677 28.371 28.122 31.204C27.226 32.335 26.255 33.247 25.591 33.276C25.034 33.292 24.732 33.036 24.732 32.481C24.732 30.933 27.378 26.754 28.431 26.754C28.876 26.754 28.367 27.602 27.634 28.637C27.331 29.067 27.842 29.418 28.398 28.637C29.627 26.914 29.404 25.942 27.904 26.117C26.624 26.263 24.242 29.141 23.463 31.377C22.664 32.371 21.828 33.211 21.416 33.211C20.364 33.211 23.139 28.701 24.781 26.98C25.466 26.183 23.887 25.689 23.33 26.359C22.365 27.515 21.267 29.19 20.527 30.692C19.599 31.955 18.459 33.212 17.955 33.212C16.904 33.212 19.614 28.845 21 26.964C21.209 26.693 21.193 26.374 20.889 26.262C19.472 25.705 15.614 30.007 14.291 31.443C15.549 28.972 17.652 25.546 19.9 23.106C20.586 22.309 18.993 21.784 18.482 22.47C16.148 25.592 14.304 28.577 13.158 30.73C12.091 32.195 11.087 32.959 9.99999 32.959C9.21999 32.959 8.89999 32.354 8.89999 31.316C8.89999 29.691 10.27 26.998 11.882 25.147C17.111 27.125 18.177 22.12 15.165 22.12C13.667 22.12 12.198 22.837 10.925 23.92C10.07 23.501 9.59799 23.155 9.00099 22.661C8.59899 22.329 8.18799 23.014 8.65099 23.363C9.09599 23.7 9.68999 24.11 10.367 24.43C8.27999 26.454 6.84399 29.356 6.84399 31.284C6.84399 32.801 7.64199 34.09 9.23399 34.09C10.329 34.09 11.237 33.682 12.137 32.852C12.116 32.903 12.092 32.96 12.074 33.007C11.786 33.74 11.946 34.123 13.11 34.123C13.348 34.123 13.461 33.994 13.604 33.771C14.606 32.193 17.475 29.083 18.274 28.606C16.727 30.615 14.941 34.123 16.903 34.123C17.898 34.123 18.909 33.4 19.819 32.441C19.54 33.435 19.63 34.123 20.363 34.123C21.333 34.123 22.313 33.478 23.207 32.578C23.207 32.603 23.2 32.631 23.2 32.656C23.2 33.803 24.189 34.123 25.05 34.123C25.709 34.123 26.465 33.686 27.229 33.008C27.179 33.122 27.129 33.24 27.092 33.34C27.061 33.406 27.061 33.485 27.061 33.549C27.061 33.834 27.332 34.043 27.681 34.123C28.271 34.219 28.431 33.994 28.718 33.23C28.958 32.735 29.197 32.273 29.419 31.826C29.77 33.469 30.774 34.137 31.907 34.137C32.71 34.137 33.538 33.542 34.319 32.704C34.35 33.703 35.284 34.123 36.161 34.123C36.908 34.123 37.78 33.562 38.646 32.722C38.608 32.821 38.571 32.917 38.538 33.007C38.283 33.74 38.362 33.994 38.986 34.123C39.446 34.219 39.844 34.123 40.069 33.771C41.073 32.193 43.942 29.083 44.737 28.606C43.192 30.615 41.406 34.123 43.368 34.123C45.329 34.123 47.337 31.333 48.563 29.436C48.418 29.241 48.258 29.131 47.989 29.178Z" fill="white"/>
</svg>
