<svg width="57" height="29" viewBox="0 0 57 29" fill="none" xmlns="http://www.w3.org/2000/svg">
<path d="M11.51 13.28C9.38301 11.89 6.02701 10.338 3.01501 9.41C1.90101 9.097 1.78001 9.579 2.54101 10.259C4.27101 11.844 5.59601 13.315 6.49601 15.401C6.10801 16.992 4.79001 19.222 2.89501 20.653C2.02601 21.254 2.27301 21.742 3.47201 21.41C6.41801 20.583 9.61901 18.905 11.465 17.647C12.666 18.263 13.955 18.856 15.295 19.418C15.214 19.487 14.957 19.632 14.841 19.666C17.42 21.399 20.478 22.17 20.496 24.055C21.762 23.733 22.804 23.061 23.592 22.259C27.312 23.262 31.071 23.871 34.927 23.937C33.931 24.553 33.233 25.9 33.147 26.854C35.421 26.991 38.41 25.727 40.379 23.659C42.04 23.472 44.274 23.161 45.752 22.466C48.202 22.008 53.879 19.76 54.802 17.236C55.253 16.622 55.066 15.854 54.732 15.233C53.233 12.457 48.746 9.798 45.751 8.972C44.331 8.375 42.949 7.988 41.463 7.631C40.945 5.654 39.658 3.308 38.039 1.853C36.042 4.603 27.961 5.528 22.687 7.706C22.996 7.926 23.276 8.181 23.52 8.456C19.805 9.518 15.239 11.214 11.51 13.28Z" fill="#006838"/>
<g opacity="0.6">
<g opacity="0.6">
<path opacity="0.6" d="M54.864 16.593C54.902 16.765 54.839 16.834 54.676 16.792C54.742 16.731 54.693 16.546 54.864 16.593Z" fill="white"/>
</g>
</g>
<g opacity="0.6">
<g opacity="0.6">
<path opacity="0.6" d="M54.243 15.275C54.214 15.311 54.165 15.327 54.103 15.331C54.078 15.331 54.056 15.324 54.036 15.306C54.016 15.287 54.009 15.266 54.009 15.241V15.218C54.009 15.168 54.049 15.126 54.099 15.126H54.175C54.211 15.126 54.241 15.148 54.257 15.181C54.27 15.212 54.265 15.248 54.243 15.275Z" fill="white"/>
</g>
</g>
<g opacity="0.6">
<g opacity="0.6">
<path opacity="0.6" d="M53.856 17.638C53.856 17.648 53.856 17.656 53.856 17.665C53.86 17.703 53.842 17.735 53.809 17.754C53.761 17.777 53.719 17.808 53.671 17.831C53.633 17.85 53.614 17.892 53.624 17.932C53.645 18.026 53.672 18.112 53.696 18.201C53.705 18.236 53.694 18.271 53.667 18.295C53.641 18.317 53.602 18.32 53.569 18.307C53.464 18.255 53.359 18.202 53.298 18.104C53.28 18.078 53.278 18.048 53.291 18.017C53.385 17.819 53.546 17.685 53.711 17.561C53.74 17.539 53.777 17.537 53.81 17.554C53.842 17.57 53.86 17.603 53.856 17.638Z" fill="white"/>
</g>
</g>
<g opacity="0.6">
<g opacity="0.6">
<path opacity="0.6" d="M52.942 18.524V18.584C52.942 18.616 52.927 18.645 52.899 18.661C52.88 18.673 52.878 18.698 52.876 18.724C52.865 18.717 52.853 18.71 52.841 18.703C52.809 18.68 52.793 18.641 52.803 18.605C52.813 18.564 52.845 18.539 52.883 18.536C52.9 18.535 52.92 18.532 52.942 18.524Z" fill="white"/>
</g>
</g>
<g opacity="0.6">
<g opacity="0.6">
<path opacity="0.6" d="M52.41 17.992C52.437 18.133 52.364 18.167 52.343 18.26C52.225 18.279 52.224 17.885 52.41 17.992Z" fill="white"/>
</g>
</g>
<g opacity="0.6">
<g opacity="0.6">
<path opacity="0.6" d="M51.919 16.065C51.907 16.053 51.897 16.039 51.882 16.027C51.849 16 51.84 15.952 51.863 15.915C51.886 15.876 51.931 15.862 51.974 15.876C52.016 15.893 52.054 15.93 52.069 15.974C52.082 16.016 52.065 16.057 52.03 16.079C51.993 16.1 51.949 16.095 51.919 16.065Z" fill="white"/>
</g>
</g>
<g opacity="0.6">
<g opacity="0.6">
<path opacity="0.6" d="M51.894 17.133C51.893 17.135 51.891 17.14 51.89 17.142C51.872 17.175 51.84 17.191 51.804 17.19C51.746 17.186 51.694 17.18 51.648 17.164C51.606 17.145 51.585 17.099 51.594 17.058C51.606 17.012 51.648 16.985 51.694 16.99C51.733 16.997 51.775 16.999 51.818 16.999C51.852 16.997 51.881 17.016 51.897 17.043C51.914 17.071 51.913 17.105 51.894 17.133Z" fill="white"/>
</g>
</g>
<g opacity="0.6">
<g opacity="0.6">
<path opacity="0.6" d="M51.567 15.836C51.478 15.806 51.385 15.711 51.371 15.63C51.366 15.601 51.375 15.573 51.392 15.552C51.412 15.531 51.438 15.519 51.467 15.522C51.575 15.53 51.598 15.626 51.657 15.685C51.687 15.712 51.693 15.757 51.671 15.795C51.65 15.833 51.607 15.848 51.567 15.836Z" fill="white"/>
</g>
</g>
<g opacity="0.6">
<g opacity="0.6">
<path opacity="0.6" d="M50.948 14.904C50.954 15.055 50.789 15.042 50.712 15.111C50.69 15.132 50.665 15.139 50.638 15.135C50.61 15.132 50.587 15.116 50.574 15.093C50.441 14.866 50.319 14.632 50.095 14.502C50.07 14.487 50.054 14.464 50.05 14.437C50.047 14.406 50.056 14.38 50.076 14.36C50.111 14.327 50.147 14.294 50.157 14.231C50.159 14.201 50.176 14.178 50.203 14.164C50.229 14.15 50.26 14.15 50.285 14.164C50.369 14.206 50.414 14.288 50.414 14.414C50.414 14.447 50.427 14.473 50.452 14.488C50.612 14.6 50.77 14.712 50.917 14.839C50.936 14.854 50.947 14.878 50.948 14.904Z" fill="white"/>
</g>
</g>
<g opacity="0.6">
<g opacity="0.6">
<path opacity="0.6" d="M50.506 11.359C50.481 11.527 50.481 11.698 50.404 11.878C50.388 11.915 50.354 11.934 50.315 11.932C50.277 11.93 50.246 11.907 50.234 11.87C50.201 11.75 50.277 11.605 50.24 11.467C50.23 11.43 50.245 11.393 50.275 11.371C50.303 11.35 50.325 11.323 50.344 11.292C50.369 11.259 50.411 11.245 50.451 11.262C50.491 11.277 50.512 11.318 50.506 11.359Z" fill="white"/>
</g>
</g>
<g opacity="0.6">
<g opacity="0.6">
<path opacity="0.6" d="M49.745 12.479V12.572C49.745 12.586 49.74 12.603 49.733 12.614C49.612 12.836 49.544 13.11 49.269 13.177C49.238 13.186 49.207 13.177 49.184 13.156C49.161 13.13 49.152 13.102 49.16 13.07C49.203 12.906 49.316 12.815 49.463 12.757C49.506 12.738 49.529 12.691 49.517 12.646C49.477 12.514 49.483 12.396 49.652 12.39C49.676 12.388 49.698 12.397 49.717 12.415C49.734 12.432 49.745 12.455 49.745 12.479Z" fill="white"/>
</g>
</g>
<g opacity="0.6">
<g opacity="0.6">
<path opacity="0.6" d="M49.69 14.972C49.67 15.133 49.474 15.168 49.422 15.042C49.41 15.016 49.412 14.993 49.422 14.967C49.435 14.943 49.453 14.927 49.478 14.92C49.51 14.911 49.533 14.894 49.561 14.883C49.59 14.867 49.624 14.868 49.654 14.89C49.681 14.908 49.694 14.938 49.69 14.972Z" fill="white"/>
</g>
</g>
<g opacity="0.6">
<g opacity="0.6">
<path opacity="0.6" d="M49.258 15.881C49.235 15.756 49.372 15.574 49.529 15.493C49.551 15.48 49.578 15.479 49.601 15.488C49.627 15.497 49.646 15.516 49.655 15.542C49.741 15.782 49.495 16.025 49.311 15.946C49.283 15.934 49.264 15.911 49.258 15.881Z" fill="white"/>
</g>
</g>
<g opacity="0.6">
<g opacity="0.6">
<path opacity="0.6" d="M49.404 12.303C49.386 12.407 49.336 12.476 49.262 12.525C49.231 12.545 49.193 12.544 49.16 12.52C49.129 12.499 49.116 12.462 49.127 12.427C49.154 12.324 49.19 12.231 49.289 12.2C49.319 12.193 49.352 12.198 49.374 12.219C49.4 12.243 49.41 12.271 49.404 12.303Z" fill="white"/>
</g>
</g>
<g opacity="0.6">
<g opacity="0.6">
<path opacity="0.6" d="M49.303 18.532C49.19 18.542 49.193 18.439 49.126 18.403C49.086 18.382 49.068 18.336 49.083 18.294C49.11 18.22 49.186 18.196 49.234 18.147C49.255 18.124 49.284 18.115 49.314 18.123C49.345 18.129 49.369 18.144 49.379 18.173C49.421 18.272 49.421 18.406 49.369 18.491C49.357 18.514 49.332 18.529 49.303 18.532Z" fill="white"/>
</g>
</g>
<g opacity="0.6">
<g opacity="0.6">
<path opacity="0.6" d="M49.411 19.393C49.421 19.456 49.4 19.483 49.377 19.511C49.351 19.55 49.301 19.561 49.261 19.536C49.247 19.529 49.232 19.523 49.212 19.523V19.48C49.212 19.431 49.251 19.392 49.302 19.392H49.411V19.393Z" fill="white"/>
</g>
</g>
<g opacity="0.6">
<g opacity="0.6">
<path opacity="0.6" d="M49.197 14.417C49.145 14.541 48.969 14.59 48.843 14.569C48.815 14.562 48.792 14.546 48.779 14.52C48.766 14.492 48.766 14.464 48.78 14.438C48.85 14.303 48.984 14.244 49.143 14.297C49.167 14.304 49.185 14.321 49.196 14.344C49.206 14.371 49.206 14.395 49.197 14.417Z" fill="white"/>
</g>
</g>
<g opacity="0.6">
<g opacity="0.6">
<path opacity="0.6" d="M48.953 14.037C48.892 14.079 48.818 14.11 48.743 14.14C48.716 14.152 48.688 14.147 48.663 14.13C48.638 14.116 48.624 14.091 48.622 14.063C48.617 14.002 48.6 13.954 48.575 13.914C48.554 13.876 48.562 13.83 48.595 13.802C48.627 13.774 48.675 13.772 48.707 13.798C48.76 13.837 48.823 13.868 48.909 13.874C48.946 13.879 48.977 13.905 48.988 13.94C48.998 13.976 48.984 14.014 48.953 14.037Z" fill="white"/>
</g>
</g>
<g opacity="0.6">
<g opacity="0.6">
<path opacity="0.6" d="M48.944 20.058C49.078 20.232 48.99 20.293 48.913 20.286C48.835 20.272 48.771 20.187 48.944 20.058Z" fill="white"/>
</g>
</g>
<g opacity="0.6">
<g opacity="0.6">
<path opacity="0.6" d="M48.903 20.625C48.818 20.724 48.646 20.732 48.651 20.92C48.652 20.952 48.636 20.983 48.608 21C48.581 21.016 48.546 21.019 48.518 21.002C48.418 20.948 48.355 20.857 48.345 20.713C48.344 20.682 48.357 20.651 48.383 20.635C48.449 20.589 48.507 20.523 48.553 20.551C48.581 20.565 48.614 20.565 48.641 20.551C48.67 20.534 48.685 20.507 48.687 20.474V20.464C48.688 20.42 48.721 20.385 48.765 20.378C48.809 20.37 48.849 20.399 48.863 20.441C48.87 20.463 48.88 20.487 48.895 20.504C48.93 20.537 48.932 20.59 48.903 20.625Z" fill="white"/>
</g>
</g>
<g opacity="0.6">
<g opacity="0.6">
<path opacity="0.6" d="M48.745 17.284V17.321C48.745 17.346 48.734 17.369 48.718 17.384C48.698 17.403 48.676 17.412 48.65 17.409C48.593 17.407 48.573 17.364 48.55 17.328C48.534 17.301 48.534 17.266 48.551 17.239C48.568 17.208 48.595 17.194 48.629 17.194H48.656C48.706 17.195 48.745 17.234 48.745 17.284Z" fill="white"/>
</g>
</g>
<g opacity="0.6">
<g opacity="0.6">
<path opacity="0.6" d="M48.345 13.03V12.96C48.345 12.922 48.366 12.89 48.401 12.878C48.434 12.864 48.473 12.872 48.498 12.898C48.551 12.949 48.551 13.04 48.498 13.094C48.474 13.12 48.436 13.127 48.401 13.115C48.367 13.097 48.345 13.067 48.345 13.03Z" fill="white"/>
</g>
</g>
<g opacity="0.6">
<g opacity="0.6">
<path opacity="0.6" d="M48.171 15.051C48.15 14.972 48.161 14.86 48.215 14.789C48.236 14.761 48.27 14.749 48.303 14.756C48.339 14.763 48.364 14.789 48.373 14.825C48.403 14.946 48.411 15.073 48.285 15.112C48.262 15.122 48.238 15.119 48.215 15.108C48.193 15.095 48.178 15.076 48.171 15.051Z" fill="white"/>
</g>
</g>
<g opacity="0.6">
<g opacity="0.6">
<path opacity="0.6" d="M48.012 16.726V16.768C48.012 16.82 47.971 16.858 47.921 16.858H47.811V16.779C47.811 16.747 47.829 16.719 47.858 16.702C47.888 16.686 47.921 16.686 47.949 16.705C47.966 16.716 47.985 16.724 48.012 16.726Z" fill="white"/>
</g>
</g>
<g opacity="0.6">
<g opacity="0.6">
<path opacity="0.6" d="M48.014 19.363C48.008 19.425 47.989 19.473 47.948 19.5C47.92 19.521 47.885 19.523 47.852 19.505C47.823 19.486 47.806 19.455 47.809 19.42C47.815 19.357 47.833 19.311 47.873 19.281C47.904 19.26 47.938 19.26 47.97 19.277C48 19.296 48.016 19.329 48.014 19.363Z" fill="white"/>
</g>
</g>
<g opacity="0.6">
<g opacity="0.6">
<path opacity="0.6" d="M47.678 17.672V17.766C47.678 17.81 47.647 17.846 47.602 17.855C47.489 17.874 47.519 18.035 47.345 17.993C47.331 17.93 47.349 17.897 47.381 17.881C47.418 17.86 47.438 17.818 47.424 17.777C47.399 17.685 47.457 17.592 47.582 17.586C47.608 17.583 47.629 17.591 47.649 17.608C47.668 17.626 47.678 17.647 47.678 17.672Z" fill="white"/>
</g>
</g>
<g opacity="0.6">
<g opacity="0.6">
<path opacity="0.6" d="M47.409 16.175C47.367 16.275 47.289 16.373 47.197 16.425C47.169 16.441 47.137 16.439 47.108 16.422C47.081 16.406 47.064 16.378 47.064 16.345C47.064 16.182 47.175 16.128 47.277 16.065C47.311 16.044 47.351 16.046 47.382 16.07C47.415 16.098 47.423 16.138 47.409 16.175Z" fill="white"/>
</g>
</g>
<g opacity="0.6">
<g opacity="0.6">
<path opacity="0.6" d="M47.243 10.722C47.222 10.729 47.199 10.733 47.174 10.733C47.148 10.736 47.127 10.726 47.107 10.708C47.089 10.692 47.08 10.668 47.08 10.645V10.58C47.08 10.54 47.105 10.505 47.144 10.493C47.181 10.484 47.221 10.496 47.245 10.531C47.253 10.545 47.264 10.559 47.276 10.571C47.3 10.595 47.31 10.625 47.302 10.655C47.295 10.687 47.273 10.712 47.243 10.722Z" fill="white"/>
</g>
</g>
<g opacity="0.6">
<g opacity="0.6">
<path opacity="0.6" d="M47.048 12.004C46.99 11.963 46.946 11.908 46.941 11.815C46.938 11.774 46.964 11.733 47.008 11.725C47.059 11.711 47.09 11.678 47.144 11.664C47.17 11.659 47.195 11.664 47.216 11.681C47.237 11.696 47.249 11.716 47.253 11.741C47.262 11.809 47.219 11.891 47.183 11.97C47.17 11.996 47.15 12.012 47.124 12.019C47.097 12.026 47.072 12.02 47.048 12.004Z" fill="white"/>
</g>
</g>
<g opacity="0.6">
<g opacity="0.6">
<path opacity="0.6" d="M47.211 16.926C46.963 16.915 46.749 16.638 46.878 16.46C47.002 16.463 46.96 16.582 47.012 16.658C47.067 16.742 47.214 16.792 47.211 16.926Z" fill="white"/>
</g>
</g>
<g opacity="0.6">
<g opacity="0.6">
<path opacity="0.6" d="M47.146 12.595C47.079 12.656 47.126 12.84 46.956 12.794C46.917 12.621 46.982 12.556 47.146 12.595Z" fill="white"/>
</g>
</g>
<g opacity="0.6">
<g opacity="0.6">
<path opacity="0.6" d="M47.079 17.19C47.116 17.339 46.952 17.287 46.947 17.392C46.78 17.365 46.941 17.133 47.079 17.19Z" fill="white"/>
</g>
</g>
<g opacity="0.6">
<g opacity="0.6">
<path opacity="0.6" d="M46.791 18.284C46.764 18.398 46.727 18.504 46.603 18.522C46.565 18.528 46.531 18.513 46.512 18.48C46.427 18.342 46.512 18.171 46.705 18.174C46.734 18.174 46.759 18.185 46.774 18.209C46.792 18.23 46.798 18.256 46.791 18.284Z" fill="white"/>
</g>
</g>
<g opacity="0.6">
<g opacity="0.6">
<path opacity="0.6" d="M46.412 17.07C46.397 17.153 46.335 17.19 46.241 17.195C46.216 17.198 46.193 17.189 46.174 17.172C46.155 17.153 46.147 17.133 46.147 17.108V17.014C46.147 16.984 46.159 16.959 46.182 16.941C46.204 16.926 46.232 16.92 46.259 16.927C46.3 16.937 46.328 16.957 46.363 16.975C46.399 16.992 46.418 17.029 46.412 17.07Z" fill="white"/>
</g>
</g>
<g opacity="0.6">
<g opacity="0.6">
<path opacity="0.6" d="M45.545 10.461C45.536 10.632 45.449 10.721 45.279 10.729C45.288 10.561 45.376 10.472 45.545 10.461Z" fill="white"/>
</g>
</g>
<g opacity="0.6">
<g opacity="0.6">
<path opacity="0.6" d="M44.788 10.383C44.769 10.371 44.752 10.36 44.738 10.343C44.715 10.317 44.708 10.285 44.719 10.252C44.73 10.219 44.756 10.196 44.79 10.193C44.823 10.189 44.853 10.187 44.881 10.196C44.937 10.219 44.918 10.259 44.923 10.294C44.929 10.33 44.915 10.365 44.885 10.383C44.854 10.401 44.818 10.401 44.788 10.383Z" fill="white"/>
</g>
</g>
<g opacity="0.6">
<g opacity="0.6">
<path opacity="0.6" d="M44.668 9.717C44.665 9.813 44.644 9.909 44.626 9.993C44.618 10.037 44.577 10.068 44.531 10.065C44.398 10.055 44.322 9.991 44.293 9.879C44.281 9.837 44.302 9.789 44.344 9.773C44.411 9.745 44.467 9.705 44.51 9.654C44.537 9.626 44.575 9.617 44.613 9.631C44.648 9.645 44.669 9.677 44.668 9.717Z" fill="white"/>
</g>
</g>
<g opacity="0.6">
<g opacity="0.6">
<path opacity="0.6" d="M44.309 9.077C44.275 8.99 44.273 8.869 44.279 8.74C44.279 8.731 44.279 8.721 44.276 8.712C44.233 8.567 44 8.609 44 8.42C44 8.395 44.011 8.371 44.031 8.353C44.036 8.348 44.043 8.343 44.049 8.341C44.12 8.364 44.189 8.385 44.258 8.408C44.34 8.488 44.386 8.602 44.499 8.649C44.53 8.663 44.551 8.69 44.554 8.726C44.566 8.884 44.524 8.99 44.473 9.085C44.457 9.118 44.425 9.134 44.389 9.134C44.352 9.133 44.323 9.111 44.309 9.077Z" fill="white"/>
</g>
</g>
<g opacity="0.6">
<g opacity="0.6">
<path opacity="0.6" d="M43.849 9.796C43.681 9.775 43.629 9.637 43.619 9.458C43.615 9.424 43.628 9.396 43.657 9.378C43.682 9.359 43.716 9.357 43.745 9.372C43.868 9.428 43.944 9.53 43.951 9.705C43.951 9.734 43.942 9.757 43.921 9.773C43.902 9.792 43.876 9.801 43.849 9.796Z" fill="white"/>
</g>
</g>
<g opacity="0.6">
<g opacity="0.6">
<path opacity="0.6" d="M43.88 13.861C43.742 13.721 43.807 13.598 43.875 13.569C43.942 13.541 44.01 13.611 43.88 13.861Z" fill="white"/>
</g>
</g>
<g opacity="0.6">
<g opacity="0.6">
<path opacity="0.6" d="M43.515 9.02101C43.422 8.94101 43.386 8.775 43.422 8.642C43.431 8.609 43.457 8.586 43.491 8.579C43.525 8.572 43.558 8.586 43.579 8.612C43.652 8.709 43.689 8.86 43.658 8.977C43.65 9.004 43.628 9.028 43.598 9.038C43.57 9.046 43.539 9.04001 43.515 9.02101Z" fill="white"/>
</g>
</g>
<g opacity="0.6">
<g opacity="0.6">
<path opacity="0.6" d="M43.21 8.298C43.204 8.296 43.199 8.291 43.193 8.289C43.17 8.273 43.156 8.247 43.155 8.219C43.153 8.189 43.165 8.165 43.188 8.144C43.189 8.144 43.192 8.142 43.192 8.139C43.216 8.118 43.25 8.109 43.282 8.118C43.314 8.128 43.337 8.151 43.344 8.183C43.346 8.193 43.348 8.204 43.35 8.214C43.354 8.249 43.337 8.28201 43.307 8.30201C43.276 8.32001 43.241 8.32 43.21 8.298Z" fill="white"/>
</g>
</g>
<g opacity="0.6">
<g opacity="0.6">
<path opacity="0.6" d="M43.213 12.261C43.193 12.462 43.01 12.5 43.078 12.787C43.079 12.791 43.081 12.796 43.081 12.803C43.089 12.971 43.256 13.097 43.201 13.245C43.192 13.271 43.172 13.289 43.144 13.298C43.115 13.308 43.087 13.303 43.063 13.284C42.782 13.077 42.895 12.362 43.213 12.261Z" fill="white"/>
</g>
</g>
<g opacity="0.6">
<g opacity="0.6">
<path opacity="0.6" d="M42.814 11.862V12.128H42.771C42.72 12.128 42.681 12.088 42.681 12.039V11.95C42.681 11.901 42.72 11.862 42.771 11.862H42.814V11.862Z" fill="white"/>
</g>
</g>
<g opacity="0.6">
<g opacity="0.6">
<path opacity="0.6" d="M42.547 22.656C42.575 22.794 42.502 22.834 42.481 22.922C42.363 22.943 42.362 22.548 42.547 22.656Z" fill="white"/>
</g>
</g>
<g opacity="0.6">
<g opacity="0.6">
<path opacity="0.6" d="M42.29 10.028C42.291 10.212 42.223 10.322 42.18 10.461C42.169 10.493 42.142 10.514 42.108 10.521C42.074 10.525 42.042 10.512 42.021 10.484C41.964 10.406 41.93 10.304 41.901 10.199C41.891 10.162 41.905 10.122 41.939 10.1C42.017 10.049 42.076 9.974 42.174 9.944C42.201 9.935 42.229 9.942 42.253 9.958C42.276 9.973 42.29 9.999 42.29 10.028Z" fill="white"/>
</g>
</g>
<g opacity="0.6">
<g opacity="0.6">
<path opacity="0.6" d="M42.015 13.661C42.132 13.64 42.132 14.035 41.948 13.928C41.92 13.787 41.995 13.75 42.015 13.661Z" fill="white"/>
</g>
</g>
<g opacity="0.6">
<g opacity="0.6">
<path opacity="0.6" d="M41.783 21.108C41.778 21.113 41.773 21.121 41.768 21.127C41.747 21.161 41.709 21.177 41.67 21.165C41.59 21.144 41.567 21.161 41.502 21.175C41.46 21.184 41.421 21.163 41.402 21.127C41.384 21.089 41.393 21.044 41.424 21.016C41.501 20.953 41.621 20.949 41.724 20.967C41.755 20.971 41.782 20.992 41.793 21.024C41.805 21.053 41.801 21.083 41.783 21.108Z" fill="white"/>
</g>
</g>
<g opacity="0.6">
<g opacity="0.6">
<path opacity="0.6" d="M41.481 13.995C41.448 14.123 41.291 14.238 41.234 14.123C41.219 14.095 41.223 14.062 41.238 14.036C41.256 14.009 41.283 13.994 41.314 13.994H41.481V13.995Z" fill="white"/>
</g>
</g>
<g opacity="0.6">
<g opacity="0.6">
<path opacity="0.6" d="M41.481 21.724V21.991H41.438C41.388 21.991 41.349 21.951 41.349 21.902V21.813C41.349 21.764 41.388 21.724 41.438 21.724H41.481Z" fill="white"/>
</g>
</g>
<g opacity="0.6">
<g opacity="0.6">
<path opacity="0.6" d="M41.182 8.462C41.007 8.434 41.019 8.277 41.103 8.174C41.121 8.153 41.145 8.141 41.172 8.141C41.199 8.139 41.223 8.153 41.241 8.174C41.277 8.218 41.285 8.291 41.285 8.372C41.284 8.4 41.273 8.424 41.254 8.44C41.234 8.459 41.208 8.464 41.182 8.462Z" fill="white"/>
</g>
</g>
<g opacity="0.6">
<g opacity="0.6">
<path opacity="0.6" d="M40.932 16.813C40.804 16.764 40.678 16.636 40.631 16.512C40.617 16.479 40.625 16.442 40.652 16.416C40.781 16.292 40.84 16.545 40.948 16.594C40.971 16.603 41.069 16.575 41.082 16.594C41.097 16.613 41.064 16.687 41.054 16.745C41.049 16.774 41.033 16.795 41.008 16.809C40.982 16.82 40.958 16.822 40.932 16.813Z" fill="white"/>
</g>
</g>
<g opacity="0.6">
<g opacity="0.6">
<path opacity="0.6" d="M41.016 14.621V14.637C41.016 14.687 40.975 14.726 40.925 14.726H40.83C40.785 14.726 40.749 14.696 40.742 14.651C40.734 14.607 40.762 14.565 40.805 14.55C40.837 14.541 40.877 14.534 40.917 14.531C40.942 14.529 40.966 14.538 40.985 14.554C41.005 14.574 41.016 14.595 41.016 14.621Z" fill="white"/>
</g>
</g>
<g opacity="0.6">
<g opacity="0.6">
<path opacity="0.6" d="M40.948 7.864C40.92 7.947 40.864 8 40.749 7.998C40.738 7.935 40.762 7.907 40.783 7.876C40.809 7.841 40.86 7.83 40.899 7.853C40.913 7.86 40.928 7.864 40.948 7.864Z" fill="white"/>
</g>
</g>
<g opacity="0.6">
<g opacity="0.6">
<path opacity="0.6" d="M40.881 15.193C40.736 15.205 40.669 15.137 40.682 14.992C40.745 15.065 40.928 15.013 40.881 15.193Z" fill="white"/>
</g>
</g>
<g opacity="0.6">
<g opacity="0.6">
<path opacity="0.6" d="M40.815 6.065C40.87 6.296 40.715 6.319 40.748 6.532C40.588 6.476 40.6 6.098 40.815 6.065Z" fill="white"/>
</g>
</g>
<g opacity="0.6">
<g opacity="0.6">
<path opacity="0.6" d="M40.557 5.275C40.498 5.28 40.427 5.261 40.37 5.228C40.336 5.207 40.319 5.167 40.33 5.127C40.341 5.087 40.375 5.062 40.417 5.062H40.447C40.485 5.132 40.521 5.203 40.557 5.275Z" fill="white"/>
</g>
</g>
<g opacity="0.6">
<g opacity="0.6">
<path opacity="0.6" d="M40.588 7.663H40.568C40.537 7.663 40.508 7.649 40.492 7.623C40.475 7.595 40.473 7.564 40.486 7.537C40.541 7.418 40.762 7.544 40.646 7.642C40.63 7.656 40.612 7.663 40.588 7.663Z" fill="white"/>
</g>
</g>
<g opacity="0.6">
<g opacity="0.6">
<path opacity="0.6" d="M40.379 8.38C40.334 8.458 40.277 8.52 40.219 8.548C40.187 8.562 40.149 8.557 40.122 8.533C40.095 8.508 40.085 8.47201 40.095 8.43801C40.123 8.35601 40.185 8.31 40.247 8.263C40.281 8.237 40.328 8.24 40.361 8.267C40.394 8.298 40.401 8.343 40.379 8.38Z" fill="white"/>
</g>
</g>
<g opacity="0.6">
<g opacity="0.6">
<path opacity="0.6" d="M40.223 8.873C40.219 8.939 40.202 8.98801 40.149 9.00701C40.119 9.01601 40.086 9.009 40.063 8.988C40.038 8.967 40.026 8.937 40.033 8.904C40.038 8.884 40.042 8.86201 40.047 8.84301C40.062 8.79901 40.104 8.771 40.149 8.78C40.194 8.79 40.225 8.829 40.223 8.873Z" fill="white"/>
</g>
</g>
<g opacity="0.6">
<g opacity="0.6">
<path opacity="0.6" d="M40.148 6.292C40.119 6.376 40.058 6.46 40.029 6.534C40.02 6.56 40.002 6.579 39.975 6.588C39.95 6.597 39.924 6.595 39.9 6.581C39.831 6.539 39.811 6.45 39.699 6.45C39.674 6.45 39.652 6.441 39.636 6.424C39.618 6.405 39.611 6.382 39.611 6.359C39.612 6.331 39.613 6.308 39.619 6.284C39.624 6.254 39.642 6.23 39.671 6.219C39.7 6.207 39.73 6.21 39.757 6.226C39.832 6.275 39.936 6.256 40.006 6.196C40.038 6.168 40.082 6.165 40.116 6.189C40.148 6.212 40.162 6.254 40.148 6.292Z" fill="white"/>
</g>
</g>
<g opacity="0.6">
<g opacity="0.6">
<path opacity="0.6" d="M39.93 15.362C39.873 15.345 39.827 15.318 39.818 15.255C39.808 15.207 39.84 15.161 39.888 15.151C39.941 15.139 39.992 15.169 40.031 15.225C40.052 15.255 40.052 15.299 40.029 15.329C40.005 15.359 39.968 15.374 39.93 15.362Z" fill="white"/>
</g>
</g>
<g opacity="0.6">
<g opacity="0.6">
<path opacity="0.6" d="M39.858 23.684C39.811 23.63 39.811 23.531 39.813 23.428C39.815 23.397 39.83 23.368 39.855 23.353C39.879 23.338 39.91 23.334 39.939 23.345C40.084 23.406 40.095 23.573 39.991 23.684C39.973 23.704 39.95 23.715 39.925 23.712C39.897 23.712 39.875 23.703 39.858 23.684Z" fill="white"/>
</g>
</g>
<g opacity="0.6">
<g opacity="0.6">
<path opacity="0.6" d="M39.608 20.606C39.622 20.534 39.675 20.506 39.714 20.459C39.738 20.43 39.778 20.42 39.816 20.434C39.853 20.451 39.874 20.483 39.872 20.523C39.867 20.594 39.811 20.67 39.732 20.707C39.7 20.72 39.666 20.715 39.639 20.694C39.612 20.672 39.599 20.639 39.608 20.606Z" fill="white"/>
</g>
</g>
<g opacity="0.6">
<g opacity="0.6">
<path opacity="0.6" d="M39.672 15.632C39.615 15.586 39.605 15.493 39.63 15.415C39.641 15.377 39.673 15.355 39.711 15.352C39.75 15.35 39.782 15.371 39.797 15.408C39.817 15.45 39.82 15.507 39.818 15.565C39.818 15.602 39.799 15.631 39.767 15.645C39.735 15.661 39.7 15.656 39.672 15.632Z" fill="white"/>
</g>
</g>
<g opacity="0.6">
<g opacity="0.6">
<path opacity="0.6" d="M39.708 7.294C39.607 7.35 39.419 7.348 39.321 7.292C39.295 7.278 39.28 7.257 39.276 7.229C39.249 7.063 39.326 6.998 39.383 6.918C39.405 6.885 39.445 6.87401 39.482 6.88301C39.638 6.93201 39.777 6.998 39.755 7.224C39.75 7.257 39.735 7.28 39.708 7.294Z" fill="white"/>
</g>
</g>
<g opacity="0.6">
<g opacity="0.6">
<path opacity="0.6" d="M39.592 16.997C39.583 17.011 39.569 17.025 39.553 17.033C39.525 17.053 39.491 17.053 39.461 17.037C39.433 17.019 39.417 16.992 39.417 16.959V16.948C39.417 16.899 39.455 16.858 39.506 16.858H39.516C39.549 16.858 39.578 16.877 39.595 16.906C39.611 16.934 39.611 16.967 39.592 16.997Z" fill="white"/>
</g>
</g>
<g opacity="0.6">
<g opacity="0.6">
<path opacity="0.6" d="M39.295 24.43C39.287 24.405 39.289 24.376 39.296 24.348C39.307 24.308 39.341 24.283 39.383 24.283C39.423 24.281 39.459 24.308 39.47 24.348C39.478 24.373 39.476 24.401 39.468 24.43C39.458 24.469 39.423 24.494 39.383 24.494C39.341 24.494 39.307 24.469 39.295 24.43Z" fill="white"/>
</g>
</g>
<g opacity="0.6">
<g opacity="0.6">
<path opacity="0.6" d="M39.283 17.658C39.046 17.763 39.242 17.431 39.084 17.459C39.157 17.264 39.299 17.544 39.283 17.658Z" fill="white"/>
</g>
</g>
<g opacity="0.6">
<g opacity="0.6">
<path opacity="0.6" d="M39.016 17.287C39 17.279 38.984 17.272 38.966 17.266C38.94 17.262 38.92 17.245 38.907 17.221C38.894 17.201 38.894 17.175 38.902 17.15C38.932 17.065 38.998 17.014 39.097 16.998C39.133 16.993 39.167 17.007 39.188 17.038C39.244 17.124 39.181 17.186 39.125 17.26C39.1 17.294 39.053 17.306 39.016 17.287Z" fill="white"/>
</g>
</g>
<g opacity="0.6">
<g opacity="0.6">
<path opacity="0.6" d="M38.616 15.324C38.6 15.315 38.583 15.305 38.567 15.299C38.545 15.286 38.529 15.268 38.523 15.244C38.516 15.218 38.519 15.195 38.533 15.174C38.685 14.907 38.846 14.651 38.991 14.375C39.011 14.341 39.047 14.322 39.086 14.329C39.228 14.352 39.002 14.528 38.95 14.661C38.905 14.775 38.98 15.024 38.821 15.058C38.779 15.067 38.751 15.103 38.751 15.144V15.248C38.751 15.282 38.734 15.311 38.705 15.325C38.675 15.343 38.644 15.343 38.616 15.324Z" fill="white"/>
</g>
</g>
<g opacity="0.6">
<g opacity="0.6">
<path opacity="0.6" d="M38.658 12.165C38.592 12.082 38.665 12.06 38.716 11.997C38.738 11.967 38.774 11.955 38.811 11.964C38.845 11.974 38.87 12.002 38.876 12.037C38.888 12.114 38.836 12.205 38.726 12.201C38.698 12.201 38.673 12.187 38.658 12.165Z" fill="white"/>
</g>
</g>
<g opacity="0.6">
<g opacity="0.6">
<path opacity="0.6" d="M38.816 7.998V8.196H38.773C38.722 8.196 38.683 8.159 38.683 8.108V8.087C38.683 8.038 38.722 7.999 38.773 7.999H38.816V7.998Z" fill="white"/>
</g>
</g>
<g opacity="0.6">
<g opacity="0.6">
<path opacity="0.6" d="M38.269 25.149C38.247 25.121 38.229 25.083 38.197 25.062C38.157 25.04 38.143 24.992 38.161 24.95C38.208 24.843 38.197 24.705 38.24 24.571C38.253 24.532 38.29 24.507 38.33 24.511C38.371 24.512 38.405 24.543 38.413 24.582C38.445 24.756 38.442 24.963 38.43 25.1C38.426 25.137 38.403 25.167 38.367 25.176C38.33 25.188 38.294 25.177 38.269 25.149Z" fill="white"/>
</g>
</g>
<g opacity="0.6">
<g opacity="0.6">
<path opacity="0.6" d="M38.216 12.128C38.129 12.116 38.088 12.06 38.08 11.971C38.077 11.941 38.088 11.911 38.112 11.892C38.136 11.873 38.167 11.866 38.197 11.878C38.3 11.908 38.245 11.993 38.216 12.128Z" fill="white"/>
</g>
</g>
<g opacity="0.6">
<g opacity="0.6">
<path opacity="0.6" d="M38.017 11.195V11.394H37.973C37.923 11.394 37.883 11.354 37.883 11.305V11.284C37.883 11.235 37.923 11.195 37.973 11.195H38.017Z" fill="white"/>
</g>
</g>
<g opacity="0.6">
<g opacity="0.6">
<path opacity="0.6" d="M37.413 12.502C37.391 12.621 37.308 12.682 37.214 12.731C37.185 12.747 37.15 12.745 37.123 12.727C37.094 12.708 37.079 12.675 37.083 12.64C37.101 12.5 37.173 12.415 37.313 12.397C37.341 12.393 37.369 12.404 37.39 12.425C37.411 12.446 37.418 12.474 37.413 12.502Z" fill="white"/>
</g>
</g>
<g opacity="0.6">
<g opacity="0.6">
<path opacity="0.6" d="M37.351 3.327C37.355 3.42 37.364 3.518 37.288 3.532C37.283 3.532 37.282 3.534 37.278 3.534C37.087 3.588 37.095 3.263 37.247 3.242C37.272 3.237 37.298 3.244 37.318 3.261C37.338 3.278 37.35 3.301 37.351 3.327Z" fill="white"/>
</g>
</g>
<g opacity="0.6">
<g opacity="0.6">
<path opacity="0.6" d="M37.327 4.004C37.317 4.018 37.305 4.032 37.289 4.042C37.261 4.061 37.226 4.061 37.197 4.047C37.167 4.028 37.151 4 37.151 3.967V3.955C37.151 3.906 37.191 3.867 37.24 3.867H37.25C37.284 3.867 37.313 3.883 37.329 3.913C37.346 3.941 37.344 3.974 37.327 4.004Z" fill="white"/>
</g>
</g>
<g opacity="0.6">
<g opacity="0.6">
<path opacity="0.6" d="M37.069 9.60299C37.013 9.61699 36.981 9.654 36.95 9.691C36.924 9.727 36.877 9.736 36.839 9.717C36.801 9.698 36.782 9.654 36.795 9.612C36.815 9.54 36.831 9.466 36.855 9.397C36.87 9.355 36.917 9.32999 36.96 9.33899C37.043 9.35999 37.101 9.409 37.13 9.484C37.139 9.507 37.137 9.533 37.127 9.556C37.113 9.579 37.093 9.59299 37.069 9.60299Z" fill="white"/>
</g>
</g>
<g opacity="0.6">
<g opacity="0.6">
<path opacity="0.6" d="M36.346 18.819C36.334 18.824 36.322 18.829 36.31 18.833C36.281 18.846 36.251 18.843 36.226 18.824C36.201 18.807 36.187 18.779 36.187 18.752C36.187 18.708 36.178 18.666 36.151 18.659C36.106 18.675 36.07 18.698 36.047 18.735C36.026 18.767 35.987 18.782 35.949 18.772C35.91 18.763 35.884 18.733 35.883 18.693C35.882 18.693 35.882 18.691 35.882 18.685C35.878 18.639 35.914 18.597 35.963 18.591C36.067 18.583 36.114 18.531 36.168 18.494C36.193 18.477 36.221 18.474 36.246 18.484C36.275 18.494 36.294 18.512 36.304 18.541C36.323 18.595 36.348 18.654 36.352 18.658C36.383 18.674 36.402 18.703 36.401 18.739C36.398 18.775 36.379 18.806 36.346 18.819Z" fill="white"/>
</g>
</g>
<g opacity="0.6">
<g opacity="0.6">
<path opacity="0.6" d="M36.288 11.901C36.283 11.963 36.263 12.011 36.222 12.037C36.194 12.058 36.158 12.06 36.126 12.042C36.096 12.023 36.079 11.99 36.082 11.958C36.088 11.893 36.106 11.845 36.146 11.818C36.177 11.799 36.213 11.799 36.243 11.815C36.275 11.833 36.29 11.863 36.288 11.901Z" fill="white"/>
</g>
</g>
<g opacity="0.6">
<g opacity="0.6">
<path opacity="0.6" d="M35.884 11.811V11.839C35.884 11.888 35.844 11.93 35.794 11.93H35.692C35.642 11.93 35.601 11.888 35.601 11.839C35.601 11.736 35.689 11.718 35.798 11.722C35.846 11.724 35.884 11.764 35.884 11.811Z" fill="white"/>
</g>
</g>
<g opacity="0.6">
<g opacity="0.6">
<path opacity="0.6" d="M35.801 17.733C35.76 17.861 35.671 17.828 35.546 17.805C35.507 17.798 35.478 17.767 35.474 17.728C35.469 17.689 35.49 17.653 35.525 17.637C35.59 17.606 35.674 17.599 35.739 17.615C35.763 17.623 35.783 17.639 35.795 17.661C35.808 17.684 35.809 17.708 35.801 17.733Z" fill="white"/>
</g>
</g>
<g opacity="0.6">
<g opacity="0.6">
<path opacity="0.6" d="M35.417 9.998C35.36 10.096 35.318 10.207 35.151 10.196C35.133 10.021 35.245 9.976 35.417 9.998Z" fill="white"/>
</g>
</g>
<g opacity="0.6">
<g opacity="0.6">
<path opacity="0.6" d="M35.218 18.059C35.367 18.089 35.245 18.387 35.284 18.525C35.135 18.497 35.257 18.196 35.218 18.059Z" fill="white"/>
</g>
</g>
<g opacity="0.6">
<g opacity="0.6">
<path opacity="0.6" d="M35.223 21.502C35.229 21.645 35.154 21.705 35.108 21.796C35.089 21.836 35.045 21.855 35.003 21.843C34.876 21.803 34.813 21.705 34.728 21.626C34.696 21.596 34.691 21.547 34.715 21.509C34.797 21.385 35.034 21.347 35.178 21.43C35.205 21.443 35.222 21.472 35.223 21.502Z" fill="white"/>
</g>
</g>
<g opacity="0.6">
<g opacity="0.6">
<path opacity="0.6" d="M35.133 14.091C35.123 14.107 35.11 14.121 35.099 14.139C35.079 14.174 35.04 14.191 34.999 14.181C34.923 14.16 34.868 14.114 34.841 14.043C34.829 14.015 34.833 13.985 34.852 13.96C34.87 13.935 34.896 13.92 34.927 13.92C34.994 13.922 35.051 13.939 35.098 13.962C35.122 13.974 35.138 13.992 35.145 14.018C35.152 14.043 35.148 14.067 35.133 14.091Z" fill="white"/>
</g>
</g>
<g opacity="0.6">
<g opacity="0.6">
<path opacity="0.6" d="M35.068 19.058H34.97C34.921 19.058 34.881 19.018 34.88 18.969C34.878 18.836 34.902 18.73 35.029 18.722C35.064 18.719 35.095 18.738 35.111 18.768C35.14 18.823 35.157 18.888 35.157 18.969C35.158 19.018 35.118 19.058 35.068 19.058Z" fill="white"/>
</g>
</g>
<g opacity="0.6">
<g opacity="0.6">
<path opacity="0.6" d="M35.017 22.188C34.795 22.293 34.496 21.824 34.311 21.56C34.291 21.529 34.259 21.518 34.225 21.522C34.095 21.541 34.091 21.7 33.988 21.623C33.966 21.604 33.953 21.578 33.953 21.552V21.36C33.953 21.333 33.964 21.308 33.985 21.29C34.006 21.273 34.032 21.266 34.059 21.271C34.583 21.373 34.66 21.922 35.017 22.188Z" fill="white"/>
</g>
</g>
<g opacity="0.6">
<g opacity="0.6">
<path opacity="0.6" d="M34.759 19.163C34.765 19.245 34.76 19.312 34.696 19.324C34.688 19.324 34.681 19.326 34.675 19.329C34.59 19.366 34.566 19.267 34.582 19.158C34.588 19.114 34.627 19.08 34.673 19.081C34.719 19.081 34.754 19.118 34.759 19.163Z" fill="white"/>
</g>
</g>
<g opacity="0.6">
<g opacity="0.6">
<path opacity="0.6" d="M34.685 13.329V13.388C34.685 13.421 34.669 13.448 34.642 13.465C34.623 13.477 34.621 13.503 34.619 13.528H34.558C34.526 13.528 34.498 13.511 34.482 13.486C34.471 13.467 34.444 13.463 34.419 13.461V13.403C34.419 13.37 34.436 13.342 34.463 13.325C34.48 13.314 34.484 13.287 34.485 13.262H34.546C34.577 13.262 34.606 13.279 34.622 13.304C34.632 13.322 34.659 13.327 34.685 13.329Z" fill="white"/>
</g>
</g>
<g opacity="0.6">
<g opacity="0.6">
<path opacity="0.6" d="M34.339 6.366C34.313 6.481 34.242 6.553 34.09 6.541C34.041 6.539 34.003 6.497 34.006 6.448C34.01 6.371 34.063 6.343 34.081 6.282C34.09 6.256 34.107 6.236 34.134 6.226C34.159 6.214 34.186 6.21601 34.209 6.23001C34.23 6.24201 34.25 6.25301 34.275 6.26001C34.322 6.27301 34.35 6.32 34.339 6.366Z" fill="white"/>
</g>
</g>
<g opacity="0.6">
<g opacity="0.6">
<path opacity="0.6" d="M34.088 13.346C34.086 13.455 34.042 13.528 33.931 13.53C33.899 13.53 33.87 13.516 33.853 13.49C33.787 13.385 33.844 13.259 33.997 13.252C34.023 13.252 34.045 13.258 34.063 13.277C34.082 13.296 34.09 13.317 34.088 13.346Z" fill="white"/>
</g>
</g>
<g opacity="0.6">
<g opacity="0.6">
<path opacity="0.6" d="M34.084 18.659C34.095 18.804 34.03 18.868 33.887 18.856C33.875 18.715 33.941 18.646 34.084 18.659Z" fill="white"/>
</g>
</g>
<g opacity="0.6">
<g opacity="0.6">
<path opacity="0.6" d="M33.947 8.28299C33.921 8.51599 33.809 8.66299 33.555 8.67299C33.524 8.67299 33.494 8.65899 33.477 8.62899C33.458 8.60399 33.458 8.571 33.473 8.54C33.552 8.391 33.665 8.276 33.813 8.194C33.844 8.178 33.877 8.178 33.907 8.196C33.935 8.217 33.949 8.24699 33.947 8.28299Z" fill="white"/>
</g>
</g>
<g opacity="0.6">
<g opacity="0.6">
<path opacity="0.6" d="M33.638 21.846C33.629 21.827 33.62 21.803 33.616 21.783C33.604 21.736 33.631 21.69 33.675 21.676C33.72 21.661 33.769 21.686 33.786 21.729C33.794 21.749 33.801 21.765 33.806 21.784C33.818 21.829 33.793 21.875 33.75 21.891C33.707 21.903 33.659 21.885 33.638 21.846Z" fill="white"/>
</g>
</g>
<g opacity="0.6">
<g opacity="0.6">
<path opacity="0.6" d="M33.752 26.722C33.74 26.805 33.675 26.836 33.606 26.865C33.54 26.865 33.473 26.865 33.41 26.865C33.498 26.733 33.627 26.653 33.752 26.722Z" fill="white"/>
</g>
</g>
<g opacity="0.6">
<g opacity="0.6">
<path opacity="0.6" d="M32.665 21.99C32.493 21.971 32.446 21.829 32.326 21.759C32.298 21.742 32.281 21.712 32.281 21.682C32.281 21.647 32.299 21.619 32.327 21.603C32.397 21.563 32.488 21.548 32.584 21.534C32.608 21.534 32.631 21.54 32.649 21.554C32.67 21.571 32.68 21.591 32.684 21.616C32.695 21.727 32.765 21.779 32.765 21.903C32.763 21.93 32.752 21.952 32.734 21.97C32.713 21.985 32.691 21.992 32.665 21.99Z" fill="white"/>
</g>
</g>
<g opacity="0.6">
<g opacity="0.6">
<path opacity="0.6" d="M31.954 18.86C31.937 18.976 31.839 19.011 31.687 18.99C31.677 18.806 31.875 18.775 31.954 18.86Z" fill="white"/>
</g>
</g>
<g opacity="0.6">
<g opacity="0.6">
<path opacity="0.6" d="M30.734 7.796C30.706 7.695 30.702 7.656 30.723 7.569C30.732 7.536 30.756 7.51 30.788 7.504C30.821 7.497 30.854 7.506 30.877 7.532C30.969 7.635 30.992 7.822 30.841 7.859C30.794 7.871 30.748 7.843 30.734 7.796Z" fill="white"/>
</g>
</g>
<g opacity="0.6">
<g opacity="0.6">
<path opacity="0.6" d="M30.087 15.661V15.859H30.044C29.993 15.859 29.954 15.819 29.954 15.77V15.75C29.954 15.701 29.993 15.662 30.044 15.662H30.087V15.661Z" fill="white"/>
</g>
</g>
<g opacity="0.6">
<g opacity="0.6">
<path opacity="0.6" d="M29.868 15.306C29.746 15.397 29.843 15.516 29.78 15.677C29.766 15.71 29.738 15.731 29.703 15.733C29.393 15.759 29.423 15.443 29.231 15.352C29.202 15.336 29.184 15.31 29.18 15.28C29.178 15.247 29.189 15.218 29.215 15.198C29.217 15.198 29.219 15.195 29.221 15.193C29.297 15.107 29.301 14.91 29.554 14.927C29.725 14.936 29.786 15.053 29.884 15.177C29.9 15.199 29.905 15.219 29.904 15.245C29.9 15.27 29.887 15.292 29.868 15.306Z" fill="white"/>
</g>
</g>
<g opacity="0.6">
<g opacity="0.6">
<path opacity="0.6" d="M29.554 17.593C29.546 17.761 29.541 17.937 29.354 17.924C29.362 17.754 29.368 17.581 29.554 17.593Z" fill="white"/>
</g>
</g>
<g opacity="0.6">
<g opacity="0.6">
<path opacity="0.6" d="M28.887 5.743V5.764C28.887 5.808 28.856 5.846 28.811 5.852C28.768 5.859 28.727 5.833 28.712 5.791V5.79L28.887 5.741V5.743Z" fill="white"/>
</g>
</g>
<g opacity="0.6">
<g opacity="0.6">
<path opacity="0.6" d="M27.94 14.312C27.747 14.291 27.682 14.374 27.698 14.498C27.704 14.535 27.687 14.57 27.655 14.586C27.622 14.605 27.584 14.603 27.553 14.579C27.498 14.536 27.459 14.474 27.437 14.397C27.424 14.355 27.446 14.308 27.486 14.29C27.536 14.268 27.592 14.254 27.664 14.254C27.69 14.254 27.712 14.245 27.729 14.226C27.747 14.209 27.753 14.186 27.753 14.163C27.75 14.058 27.75 13.955 27.797 13.898C27.815 13.88 27.822 13.857 27.819 13.829C27.815 13.803 27.803 13.782 27.783 13.766C27.742 13.738 27.717 13.698 27.756 13.593C28.01 13.731 28.085 13.932 28.038 14.238C28.032 14.285 27.987 14.319 27.94 14.312Z" fill="white"/>
</g>
</g>
<g opacity="0.6">
<g opacity="0.6">
<path opacity="0.6" d="M27.987 7.477C27.96 7.544 27.931 7.607 27.841 7.61C27.815 7.61 27.792 7.601 27.775 7.582C27.757 7.563 27.748 7.54 27.752 7.512C27.758 7.417 27.823 7.365 27.893 7.355C27.925 7.351 27.955 7.362 27.975 7.388C27.995 7.413 27.999 7.446 27.987 7.477Z" fill="white"/>
</g>
</g>
<g opacity="0.6">
<g opacity="0.6">
<path opacity="0.6" d="M27.956 21.59C28.187 21.764 27.716 21.789 27.757 21.99C27.547 21.841 27.842 21.64 27.956 21.59Z" fill="white"/>
</g>
</g>
<g opacity="0.6">
<g opacity="0.6">
<path opacity="0.6" d="M27.698 21.067C27.708 20.966 27.735 20.882 27.827 20.862C27.868 20.851 27.908 20.871 27.927 20.907C27.974 21 27.925 21.104 27.829 21.156C27.8 21.172 27.765 21.172 27.736 21.153C27.707 21.134 27.693 21.103 27.698 21.067Z" fill="white"/>
</g>
</g>
<g opacity="0.6">
<g opacity="0.6">
<path opacity="0.6" d="M27.629 7.123C27.643 7.269 27.596 7.354 27.57 7.462C27.562 7.485 27.549 7.504 27.527 7.518C27.504 7.529 27.48 7.532 27.457 7.525C27.41 7.511 27.382 7.481 27.366 7.436C27.353 7.398 27.317 7.375 27.277 7.377C27.236 7.38 27.205 7.405 27.195 7.445C27.18 7.504 27.154 7.55 27.073 7.541C27.039 7.537 27.011 7.515 26.999 7.483C26.934 7.305 27.082 7.086 27.137 6.864C27.145 6.829 27.171 6.803 27.204 6.796C27.238 6.789 27.27 6.801 27.294 6.829C27.328 6.873 27.355 6.925 27.379 6.976C27.4 7.016 27.442 7.037 27.484 7.025C27.513 7.016 27.539 7.032 27.576 7.048C27.608 7.063 27.628 7.089 27.629 7.123Z" fill="white"/>
</g>
</g>
<g opacity="0.6">
<g opacity="0.6">
<path opacity="0.6" d="M27.557 21.257C27.309 21.25 27.388 21.161 27.422 20.989C27.512 21.034 27.546 21.133 27.557 21.257Z" fill="white"/>
</g>
</g>
<g opacity="0.6">
<g opacity="0.6">
<path opacity="0.6" d="M27.161 15.083C27.054 15.102 26.999 14.986 27.003 14.88C27.003 14.838 27.032 14.803 27.073 14.794C27.111 14.787 27.153 14.804 27.172 14.841C27.198 14.89 27.242 14.923 27.234 15.005C27.23 15.046 27.2 15.076 27.161 15.083Z" fill="white"/>
</g>
</g>
<g opacity="0.6">
<g opacity="0.6">
<path opacity="0.6" d="M26.835 21.497C26.828 21.474 26.829 21.443 26.835 21.417C26.846 21.376 26.881 21.351 26.922 21.351C26.963 21.347 26.998 21.376 27.009 21.415C27.016 21.44 27.016 21.47 27.009 21.497C26.998 21.537 26.963 21.562 26.922 21.562C26.881 21.562 26.846 21.537 26.835 21.497Z" fill="white"/>
</g>
</g>
<g opacity="0.6">
<g opacity="0.6">
<path opacity="0.6" d="M26.459 19.321C26.427 19.392 26.37 19.436 26.285 19.453C26.251 19.46 26.219 19.448 26.197 19.42C26.176 19.393 26.172 19.359 26.185 19.326C26.218 19.256 26.274 19.212 26.361 19.196C26.393 19.191 26.426 19.203 26.447 19.228C26.47 19.256 26.473 19.292 26.459 19.321Z" fill="white"/>
</g>
</g>
<g opacity="0.6">
<g opacity="0.6">
<path opacity="0.6" d="M26.423 17.859C26.408 17.898 26.387 17.931 26.356 17.958C26.325 17.979 26.286 17.98 26.253 17.96C26.22 17.939 26.206 17.902 26.215 17.864C26.239 17.768 26.348 17.785 26.423 17.859Z" fill="white"/>
</g>
</g>
<g opacity="0.6">
<g opacity="0.6">
<path opacity="0.6" d="M26.347 10.182C26.333 10.268 26.311 10.289 26.326 10.362C26.332 10.392 26.322 10.423 26.299 10.444C26.278 10.465 26.247 10.475 26.216 10.465C26.042 10.423 26.07 10.18 26.209 10.092C26.24 10.073 26.277 10.073 26.307 10.093C26.336 10.111 26.352 10.144 26.347 10.182Z" fill="white"/>
</g>
</g>
<g opacity="0.6">
<g opacity="0.6">
<path opacity="0.6" d="M26.356 20.324C26.169 20.334 26.139 20.135 26.223 20.057C26.311 20.102 26.347 20.2 26.356 20.324Z" fill="white"/>
</g>
</g>
<g opacity="0.6">
<g opacity="0.6">
<path opacity="0.6" d="M26.159 12.448C26.153 12.552 26.083 12.593 25.978 12.597C25.951 12.6 25.924 12.589 25.907 12.57C25.888 12.549 25.882 12.523 25.885 12.495C25.904 12.378 26.013 12.332 26.095 12.357C26.134 12.369 26.161 12.407 26.159 12.448Z" fill="white"/>
</g>
</g>
<g opacity="0.6">
<g opacity="0.6">
<path opacity="0.6" d="M25.969 14.495C25.928 14.525 25.868 14.536 25.791 14.53C25.765 14.528 25.741 14.536 25.722 14.555C25.678 14.599 25.642 14.654 25.588 14.688C25.552 14.714 25.508 14.71 25.478 14.681C25.446 14.651 25.439 14.609 25.461 14.572C25.5 14.499 25.561 14.446 25.563 14.338C25.564 14.289 25.602 14.252 25.649 14.249C25.795 14.242 25.887 14.291 25.967 14.349C25.99 14.368 26.004 14.391 26.004 14.422C26.004 14.45 25.991 14.476 25.969 14.495Z" fill="white"/>
</g>
</g>
<g opacity="0.6">
<g opacity="0.6">
<path opacity="0.6" d="M26.024 16.061V16.103C26.024 16.155 25.983 16.195 25.933 16.195H25.824V16.114C25.824 16.082 25.841 16.054 25.87 16.035C25.9 16.021 25.933 16.021 25.962 16.039C25.978 16.051 25.999 16.058 26.024 16.061Z" fill="white"/>
</g>
</g>
<g opacity="0.6">
<g opacity="0.6">
<path opacity="0.6" d="M25.844 21.796C25.744 21.802 25.734 21.717 25.68 21.675C25.66 21.656 25.651 21.635 25.649 21.608C25.647 21.582 25.656 21.558 25.674 21.54C25.699 21.517 25.723 21.489 25.738 21.456C25.751 21.426 25.779 21.404 25.813 21.402C25.847 21.4 25.878 21.416 25.895 21.444C25.953 21.538 25.972 21.661 25.916 21.755C25.902 21.78 25.875 21.796 25.844 21.796Z" fill="white"/>
</g>
</g>
<g opacity="0.6">
<g opacity="0.6">
<path opacity="0.6" d="M25.89 19.856C25.773 19.842 25.738 19.742 25.757 19.59C25.958 19.523 25.875 19.74 25.89 19.856Z" fill="white"/>
</g>
</g>
<g opacity="0.6">
<g opacity="0.6">
<path opacity="0.6" d="M25.743 16.926H25.55C25.511 16.926 25.476 16.902 25.464 16.862C25.423 16.721 25.501 16.628 25.571 16.508C25.587 16.48 25.61 16.464 25.641 16.461C25.672 16.459 25.7 16.471 25.717 16.494C25.787 16.577 25.838 16.681 25.832 16.84C25.831 16.888 25.79 16.926 25.743 16.926Z" fill="white"/>
</g>
</g>
<g opacity="0.6">
<g opacity="0.6">
<path opacity="0.6" d="M25.756 11.927C25.742 11.969 25.721 12.002 25.69 12.026C25.659 12.049 25.619 12.051 25.586 12.027C25.555 12.008 25.539 11.969 25.549 11.934C25.573 11.838 25.682 11.857 25.756 11.927Z" fill="white"/>
</g>
</g>
<g opacity="0.6">
<g opacity="0.6">
<path opacity="0.6" d="M25.69 16.158V16.228C25.69 16.263 25.669 16.295 25.634 16.31C25.598 16.325 25.563 16.317 25.537 16.291C25.484 16.237 25.484 16.146 25.537 16.094C25.562 16.067 25.6 16.06 25.634 16.074C25.668 16.09 25.69 16.121 25.69 16.158Z" fill="white"/>
</g>
</g>
<g opacity="0.6">
<g opacity="0.6">
<path opacity="0.6" d="M25.542 8.825C25.532 8.841 25.519 8.858 25.506 8.876C25.484 8.916 25.433 8.92901 25.392 8.91101C25.374 8.90401 25.36 8.892 25.343 8.885C25.314 8.871 25.296 8.84301 25.294 8.81301C25.291 8.77701 25.305 8.75001 25.332 8.73101C25.376 8.70101 25.43 8.68201 25.477 8.68901C25.509 8.69001 25.533 8.712 25.548 8.738C25.559 8.769 25.559 8.798 25.542 8.825Z" fill="white"/>
</g>
</g>
<g opacity="0.6">
<g opacity="0.6">
<path opacity="0.6" d="M25.024 7.53C24.987 7.671 24.919 7.673 24.825 7.598V7.586C24.825 7.553 24.841 7.52299 24.87 7.50599C24.901 7.48999 24.934 7.492 24.963 7.511C24.978 7.521 24.998 7.53 25.024 7.53Z" fill="white"/>
</g>
</g>
<g opacity="0.6">
<g opacity="0.6">
<path opacity="0.6" d="M24.891 12.479V12.502C24.891 12.53 24.878 12.553 24.856 12.572C24.833 12.591 24.807 12.595 24.78 12.589C24.727 12.577 24.691 12.548 24.664 12.514C24.638 12.481 24.637 12.437 24.661 12.404C24.686 12.371 24.729 12.36 24.766 12.377C24.783 12.384 24.799 12.389 24.817 12.391C24.86 12.399 24.891 12.437 24.891 12.479Z" fill="white"/>
</g>
</g>
<g opacity="0.6">
<g opacity="0.6">
<path opacity="0.6" d="M24.825 9.663V9.861H24.78C24.731 9.861 24.691 9.822 24.691 9.773V9.752C24.691 9.703 24.731 9.663 24.78 9.663H24.825Z" fill="white"/>
</g>
</g>
<g opacity="0.6">
<g opacity="0.6">
<path opacity="0.6" d="M24.356 17.987C24.367 18.089 24.387 18.192 24.297 18.191C24.292 18.191 24.287 18.192 24.283 18.192C24.131 18.212 24.129 18.062 24.188 17.955C24.208 17.923 24.244 17.903 24.285 17.91C24.323 17.92 24.352 17.947 24.356 17.987Z" fill="white"/>
</g>
</g>
<g opacity="0.6">
<g opacity="0.6">
<path opacity="0.6" d="M23.976 8.649C23.957 8.607 23.954 8.551 23.954 8.49C23.955 8.455 23.975 8.42501 24.006 8.41001C24.04 8.39401 24.074 8.399 24.101 8.422C24.158 8.471 24.168 8.565 24.144 8.642C24.133 8.677 24.101 8.703 24.061 8.705C24.023 8.705 23.989 8.684 23.976 8.649Z" fill="white"/>
</g>
</g>
<g opacity="0.6">
<g opacity="0.6">
<path opacity="0.6" d="M23.363 17.439C23.364 17.599 23.172 17.627 23.107 17.521C23.092 17.495 23.09 17.463 23.102 17.439C23.115 17.41 23.136 17.392 23.165 17.386C23.195 17.379 23.214 17.37 23.229 17.361C23.258 17.345 23.291 17.345 23.318 17.361C23.347 17.379 23.363 17.406 23.363 17.439Z" fill="white"/>
</g>
</g>
<g opacity="0.6">
<g opacity="0.6">
<path opacity="0.6" d="M23.114 18.603C23.108 18.617 23.103 18.633 23.097 18.652C23.092 18.68 23.075 18.701 23.047 18.715C23.02 18.724 22.993 18.724 22.968 18.71C22.913 18.681 22.894 18.619 22.888 18.542C22.887 18.507 22.903 18.476 22.931 18.458C22.96 18.44 22.994 18.44 23.023 18.458C23.04 18.467 23.057 18.476 23.075 18.488C23.115 18.509 23.134 18.558 23.114 18.603Z" fill="white"/>
</g>
</g>
<g opacity="0.6">
<g opacity="0.6">
<path opacity="0.6" d="M22.691 17.259C22.789 17.453 22.393 17.453 22.492 17.259H22.691Z" fill="white"/>
</g>
</g>
<g opacity="0.6">
<g opacity="0.6">
<path opacity="0.6" d="M21.759 11.796C21.962 11.862 21.729 12.02 21.692 12.063C21.488 11.997 21.768 11.883 21.759 11.796Z" fill="white"/>
</g>
</g>
<g opacity="0.6">
<g opacity="0.6">
<path opacity="0.6" d="M21.632 22.229C21.667 22.506 21.425 22.56 21.377 22.71C21.366 22.745 21.335 22.766 21.3 22.771C21.263 22.774 21.231 22.756 21.212 22.724C21.195 22.691 21.179 22.666 21.16 22.657C21.129 22.64 20.978 22.682 20.96 22.657C20.94 22.63 21.095 22.365 20.945 22.402C20.915 22.409 20.886 22.399 20.862 22.379C20.839 22.355 20.831 22.325 20.838 22.295C20.915 21.938 21.336 21.984 21.595 22.166C21.616 22.182 21.628 22.202 21.632 22.229Z" fill="white"/>
</g>
</g>
<g opacity="0.6">
<g opacity="0.6">
<path opacity="0.6" d="M19.089 18.156C19.093 17.992 19.161 17.889 19.303 17.864C19.341 17.857 19.377 17.875 19.396 17.906C19.484 18.058 19.363 18.2 19.202 18.245C19.173 18.252 19.146 18.247 19.123 18.228C19.1 18.21 19.089 18.186 19.089 18.156Z" fill="white"/>
</g>
</g>
<g opacity="0.6">
<g opacity="0.6">
<path opacity="0.6" d="M19.293 16.327C19.283 16.364 19.254 16.381 19.238 16.413C19.221 16.444 19.193 16.459 19.159 16.459H19.094C19.096 16.438 19.096 16.422 19.095 16.403C19.094 16.37 19.108 16.343 19.135 16.324C19.163 16.306 19.196 16.305 19.224 16.319C19.241 16.327 19.264 16.332 19.293 16.327Z" fill="white"/>
</g>
</g>
<g opacity="0.6">
<g opacity="0.6">
<path opacity="0.6" d="M19.026 14.014V14.077C19.026 14.116 19.001 14.151 18.963 14.163C18.924 14.174 18.884 14.161 18.862 14.126C18.852 14.111 18.841 14.098 18.83 14.085C18.805 14.065 18.795 14.032 18.802 14.002C18.809 13.969 18.831 13.946 18.862 13.935C18.883 13.93 18.906 13.925 18.931 13.923C18.956 13.923 18.979 13.93 18.998 13.948C19.017 13.965 19.026 13.988 19.026 14.014Z" fill="white"/>
</g>
</g>
<g opacity="0.6">
<g opacity="0.6">
<path opacity="0.6" d="M19.03 20.219C19.024 20.321 18.982 20.385 18.88 20.392C18.844 20.395 18.812 20.376 18.795 20.343C18.779 20.311 18.768 20.269 18.763 20.225C18.761 20.199 18.768 20.172 18.786 20.155C18.804 20.134 18.826 20.124 18.853 20.124H18.94C18.966 20.124 18.987 20.134 19.006 20.151C19.023 20.169 19.031 20.193 19.03 20.219Z" fill="white"/>
</g>
</g>
<g opacity="0.6">
<g opacity="0.6">
<path opacity="0.6" d="M18.494 14.46V14.504C18.494 14.553 18.453 14.592 18.404 14.592H18.295V14.516C18.295 14.48 18.312 14.453 18.342 14.436C18.371 14.419 18.405 14.422 18.433 14.441C18.448 14.45 18.468 14.46 18.494 14.46Z" fill="white"/>
</g>
</g>
<g opacity="0.6">
<g opacity="0.6">
<path opacity="0.6" d="M18.294 15.794C18.236 15.89 18.194 16.004 18.027 15.993C18.085 15.896 18.128 15.782 18.294 15.794Z" fill="white"/>
</g>
</g>
<g opacity="0.6">
<g opacity="0.6">
<path opacity="0.6" d="M17.694 10.96V11.03C17.694 11.068 17.673 11.1 17.638 11.113C17.605 11.128 17.566 11.118 17.541 11.092C17.488 11.041 17.488 10.949 17.541 10.896C17.566 10.87 17.604 10.863 17.638 10.877C17.673 10.893 17.694 10.922 17.694 10.96Z" fill="white"/>
</g>
</g>
<g opacity="0.6">
<g opacity="0.6">
<path opacity="0.6" d="M17.22 15.128C17.047 15.166 17.068 14.955 17.113 14.825C17.124 14.787 17.157 14.763 17.194 14.762C17.233 14.762 17.266 14.783 17.28 14.818C17.317 14.906 17.318 15.036 17.272 15.096C17.26 15.111 17.241 15.124 17.22 15.128Z" fill="white"/>
</g>
</g>
<g opacity="0.6">
<g opacity="0.6">
<path opacity="0.6" d="M17.074 15.408C17.078 15.544 17.017 15.719 16.896 15.777C16.866 15.794 16.831 15.789 16.803 15.77C16.776 15.752 16.763 15.719 16.767 15.687C16.785 15.539 16.84 15.43 16.92 15.349C16.946 15.32 16.983 15.314 17.017 15.328C17.051 15.341 17.073 15.371 17.074 15.408Z" fill="white"/>
</g>
</g>
<g opacity="0.6">
<g opacity="0.6">
<path opacity="0.6" d="M16.888 11.329C16.764 11.331 16.636 11.338 16.551 11.301C16.511 11.282 16.49 11.24 16.501 11.198C16.557 10.957 17.01 10.892 16.976 11.247C16.971 11.294 16.934 11.329 16.888 11.329Z" fill="white"/>
</g>
</g>
<g opacity="0.6">
<g opacity="0.6">
<path opacity="0.6" d="M16.434 19.345C16.431 19.465 16.369 19.529 16.249 19.53C16.224 19.533 16.201 19.524 16.183 19.506C16.163 19.487 16.156 19.463 16.157 19.44C16.161 19.318 16.223 19.257 16.343 19.253C16.368 19.253 16.39 19.26 16.408 19.278C16.426 19.296 16.435 19.316 16.434 19.345Z" fill="white"/>
</g>
</g>
<g opacity="0.6">
<g opacity="0.6">
<path opacity="0.6" d="M16.166 20.14C16.163 20.252 16.12 20.325 16.008 20.327C15.976 20.327 15.947 20.313 15.93 20.286C15.863 20.182 15.922 20.057 16.073 20.05C16.099 20.05 16.12 20.057 16.14 20.075C16.157 20.094 16.167 20.114 16.166 20.14Z" fill="white"/>
</g>
</g>
<g opacity="0.6">
<g opacity="0.6">
<path opacity="0.6" d="M15.762 19.658V19.856H15.719C15.669 19.856 15.63 19.817 15.63 19.768V19.747C15.63 19.698 15.669 19.658 15.719 19.658H15.762Z" fill="white"/>
</g>
</g>
<g opacity="0.6">
<g opacity="0.6">
<path opacity="0.6" d="M15.367 17.387C15.352 17.383 15.339 17.376 15.327 17.369C15.287 17.347 15.269 17.303 15.283 17.262C15.296 17.219 15.336 17.194 15.38 17.201C15.408 17.205 15.436 17.217 15.457 17.234C15.488 17.265 15.495 17.31 15.473 17.346C15.45 17.385 15.408 17.401 15.367 17.387Z" fill="white"/>
</g>
</g>
<g opacity="0.6">
<g opacity="0.6">
<path opacity="0.6" d="M15.088 16.362C15.078 16.371 15.069 16.381 15.061 16.389C15.04 16.415 15.011 16.43 14.977 16.422C14.945 16.418 14.919 16.396 14.907 16.366C14.898 16.343 14.893 16.314 14.892 16.282C14.892 16.254 14.902 16.228 14.924 16.21C14.946 16.191 14.973 16.187 15.001 16.191C15.026 16.198 15.048 16.208 15.068 16.217C15.094 16.231 15.109 16.255 15.115 16.285C15.119 16.313 15.109 16.341 15.088 16.362Z" fill="white"/>
</g>
</g>
<g opacity="0.6">
<g opacity="0.6">
<path opacity="0.6" d="M15.041 19.593C15.023 19.6 15.004 19.605 14.984 19.605C15.02 19.588 15.056 19.57 15.091 19.55C15.082 19.569 15.063 19.584 15.041 19.593Z" fill="white"/>
</g>
</g>
<g opacity="0.6">
<g opacity="0.6">
<path opacity="0.6" d="M14.606 17.579C14.581 17.539 14.561 17.489 14.554 17.443C14.547 17.399 14.576 17.357 14.618 17.342C14.663 17.331 14.708 17.351 14.726 17.394C14.741 17.431 14.76 17.468 14.769 17.516C14.776 17.558 14.753 17.599 14.713 17.614C14.674 17.63 14.629 17.615 14.606 17.579Z" fill="white"/>
</g>
</g>
<g opacity="0.6">
<g opacity="0.6">
<path opacity="0.6" d="M14.75 18.748C14.739 18.768 14.722 18.784 14.71 18.808C14.688 18.85 14.636 18.868 14.592 18.847C14.548 18.826 14.519 18.789 14.464 18.78C14.423 18.776 14.394 18.745 14.388 18.705C14.382 18.667 14.402 18.629 14.438 18.612C14.517 18.575 14.634 18.585 14.712 18.624C14.734 18.634 14.75 18.654 14.757 18.678C14.766 18.7 14.762 18.724 14.75 18.748Z" fill="white"/>
</g>
</g>
<g opacity="0.6">
<g opacity="0.6">
<path opacity="0.6" d="M13.963 15.794C13.846 15.777 13.812 15.677 13.831 15.525C14.03 15.46 13.947 15.675 13.963 15.794Z" fill="white"/>
</g>
</g>
<g opacity="0.6">
<g opacity="0.6">
<path opacity="0.6" d="M13.242 15.974C13.227 15.927 13.24 15.866 13.257 15.806C13.269 15.763 13.308 15.736 13.353 15.74C13.395 15.744 13.43 15.777 13.433 15.822C13.436 15.874 13.43 15.93 13.414 15.974C13.401 16.012 13.367 16.034 13.328 16.034C13.288 16.034 13.254 16.012 13.242 15.974Z" fill="white"/>
</g>
</g>
<g opacity="0.6">
<g opacity="0.6">
<path opacity="0.6" d="M12.714 17.995C12.444 17.995 12.408 17.682 12.528 17.556C12.549 17.533 12.575 17.523 12.604 17.528C12.789 17.552 12.869 17.795 12.794 17.947C12.78 17.977 12.749 17.995 12.714 17.995Z" fill="white"/>
</g>
</g>
<g opacity="0.6">
<g opacity="0.6">
<path opacity="0.6" d="M12.563 12.927C12.879 13.242 12.194 12.9 12.496 12.862C12.577 12.85 12.533 12.897 12.563 12.927Z" fill="white"/>
</g>
</g>
<g opacity="0.6">
<g opacity="0.6">
<path opacity="0.6" d="M12.164 17.658C12.245 17.682 12.218 17.835 12.164 17.859C12.021 17.92 12.01 17.614 12.164 17.658Z" fill="white"/>
</g>
</g>
<g opacity="0.6">
<g opacity="0.6">
<path opacity="0.6" d="M11.097 17.693C11.096 17.697 11.095 17.701 11.094 17.705C11.087 17.733 11.07 17.752 11.045 17.764C11.021 17.776 10.995 17.776 10.971 17.764C10.944 17.752 10.92 17.736 10.902 17.717C10.876 17.69 10.869 17.648 10.888 17.612C10.907 17.58 10.944 17.559 10.982 17.566C10.996 17.571 11.007 17.571 11.02 17.571C11.051 17.573 11.076 17.587 11.092 17.612C11.106 17.638 11.109 17.665 11.097 17.693Z" fill="white"/>
</g>
</g>
<g opacity="0.6">
<g opacity="0.6">
<path opacity="0.6" d="M10.031 18.191C9.877 18.146 9.85301 17.971 9.69901 17.923C9.77201 17.791 10.082 17.98 10.031 18.191Z" fill="white"/>
</g>
</g>
<g opacity="0.6">
<g opacity="0.6">
<path opacity="0.6" d="M9.56503 17.859C9.37503 17.849 9.44303 17.581 9.43203 17.392C9.68503 17.338 9.51603 17.708 9.56503 17.859Z" fill="white"/>
</g>
</g>
<g opacity="0.6">
<g opacity="0.6">
<path opacity="0.6" d="M8.86302 16.403C8.84002 16.447 8.81102 16.492 8.78802 16.539C8.76902 16.576 8.73002 16.595 8.68902 16.588C8.61702 16.571 8.57403 16.53 8.51903 16.497C8.49403 16.481 8.48003 16.457 8.47703 16.427C8.47503 16.397 8.48502 16.371 8.50802 16.352C8.58702 16.285 8.70903 16.245 8.81003 16.276C8.83703 16.283 8.85602 16.301 8.86702 16.328C8.87802 16.352 8.87702 16.381 8.86302 16.403Z" fill="white"/>
</g>
</g>
<g opacity="0.6">
<g opacity="0.6">
<path opacity="0.6" d="M8.044 16.549C8.025 16.519 8.015 16.482 8.006 16.441C7.997 16.397 8.024 16.352 8.067 16.338C8.112 16.324 8.158 16.345 8.178 16.387C8.188 16.414 8.198 16.445 8.206 16.473C8.217 16.517 8.196 16.559 8.156 16.577C8.115 16.598 8.069 16.583 8.044 16.549Z" fill="white"/>
</g>
</g>
<g opacity="0.6">
<g opacity="0.6">
<path opacity="0.6" d="M7.69901 12.462C7.79801 12.656 7.40201 12.656 7.50001 12.462H7.69901Z" fill="white"/>
</g>
</g>
<g opacity="0.6">
<g opacity="0.6">
<path opacity="0.6" d="M7.46402 17.57C7.41902 17.586 7.37502 17.584 7.34502 17.549C7.32102 17.523 7.31501 17.489 7.32701 17.458C7.33701 17.425 7.36501 17.403 7.39801 17.399C7.40401 17.399 7.40902 17.396 7.41402 17.396C7.46102 17.384 7.50801 17.413 7.52001 17.458C7.53401 17.503 7.50902 17.552 7.46402 17.57Z" fill="white"/>
</g>
</g>
<g opacity="0.6">
<g opacity="0.6">
<path opacity="0.6" d="M7.03799 13.147C7.03399 13.257 6.99099 13.324 6.88399 13.329C6.84899 13.331 6.82 13.315 6.803 13.285C6.771 13.228 6.76399 13.157 6.77999 13.093C6.78799 13.068 6.80399 13.047 6.82899 13.034C6.85299 13.022 6.87999 13.022 6.90499 13.034C6.92299 13.044 6.94299 13.051 6.96599 13.055C7.00799 13.065 7.03899 13.103 7.03799 13.147Z" fill="white"/>
</g>
</g>
<g opacity="0.6">
<g opacity="0.6">
<path opacity="0.6" d="M6.707 12.154C6.712 12.264 6.692 12.348 6.582 12.343C6.534 12.343 6.496 12.301 6.496 12.252C6.496 12.168 6.521 12.105 6.578 12.077C6.605 12.063 6.637 12.063 6.663 12.079C6.691 12.096 6.706 12.121 6.707 12.154Z" fill="white"/>
</g>
</g>
<g opacity="0.6">
<g opacity="0.6">
<path opacity="0.6" d="M5.63402 11.219V11.238C5.63402 11.287 5.59302 11.329 5.54502 11.329H5.52402C5.47502 11.329 5.43402 11.287 5.43402 11.238V11.219C5.43402 11.17 5.47502 11.128 5.52402 11.128H5.54502C5.59302 11.128 5.63402 11.17 5.63402 11.219Z" fill="white"/>
</g>
</g>
<g opacity="0.6">
<g opacity="0.6">
<path opacity="0.6" d="M5.104 12.787C5.104 12.854 5.097 12.913 5.083 12.969C5.009 12.871 4.93299 12.772 4.85699 12.677C4.91599 12.672 4.97799 12.679 5.04399 12.702C5.08099 12.717 5.104 12.75 5.104 12.787Z" fill="white"/>
</g>
</g>
<g opacity="0.6">
<g opacity="0.6">
<path opacity="0.6" d="M48.815 12.857C48.897 12.768 48.831 13.048 48.877 13.261C48.572 13.284 48.691 12.958 48.806 12.865C48.809 12.861 48.814 12.859 48.815 12.857Z" fill="white"/>
</g>
</g>
<g opacity="0.6">
<g opacity="0.6">
<path opacity="0.6" d="M25.211 18.16C25.2 18.2 25.172 18.238 25.127 18.254C25.09 18.268 25.066 18.301 25.068 18.341C25.068 18.373 25.032 18.395 24.957 18.392C24.971 18.283 25.005 18.192 25.042 18.103C25.059 18.061 25.109 18.037 25.153 18.054C25.198 18.067 25.223 18.114 25.211 18.16Z" fill="white"/>
</g>
</g>
<g opacity="0.6">
<g opacity="0.6">
<path opacity="0.6" d="M16.252 13.107C16.119 13.055 16.079 12.913 16.041 12.768C16.03 12.727 16.048 12.686 16.085 12.664C16.122 12.645 16.166 12.655 16.195 12.685C16.21 12.701 16.22 12.715 16.229 12.727C16.293 12.819 16.368 12.902 16.375 13.017C16.378 13.05 16.364 13.076 16.338 13.096C16.313 13.114 16.281 13.119 16.252 13.107Z" fill="white"/>
</g>
</g>
<g opacity="0.6">
<g opacity="0.6">
<path opacity="0.6" d="M13.496 16.657C13.274 16.569 13.214 16.317 13.031 16.194C13.051 16.021 13.248 16.294 13.297 16.327C13.372 16.375 13.583 16.532 13.496 16.657Z" fill="white"/>
</g>
</g>
<g opacity="0.6">
<g opacity="0.6">
<path opacity="0.6" d="M8.394 18.383C8.443 18.509 8.374 18.574 8.313 18.663C8.293 18.691 8.263 18.704 8.23 18.7C8.196 18.698 8.168 18.675 8.157 18.644C8.099 18.498 8.068 18.335 8.306 18.323C8.344 18.322 8.38 18.345 8.394 18.383Z" fill="white"/>
</g>
</g>
<g opacity="0.6">
<g opacity="0.6">
<path opacity="0.6" d="M40.899 12.069C40.82 12.128 40.782 12.176 40.782 12.219C40.782 12.244 40.798 12.265 40.823 12.282C40.96 12.37 41.079 12.465 41.178 12.565C41.201 12.588 41.243 12.6 41.309 12.6C41.349 12.6 41.399 12.595 41.455 12.586C41.587 12.565 41.721 12.525 41.867 12.462C42.088 12.366 42.201 12.284 42.216 12.207C42.222 12.176 42.212 12.146 42.185 12.119C42.078 12.014 41.958 11.915 41.823 11.831C41.773 11.798 41.679 11.791 41.55 11.812C41.428 11.831 41.292 11.87 41.14 11.934C41.051 11.971 40.971 12.016 40.899 12.069Z" fill="white"/>
</g>
</g>
<g opacity="0.6">
<g opacity="0.6">
<path opacity="0.6" d="M21.077 13.137C20.997 13.196 20.959 13.245 20.959 13.286C20.96 13.312 20.974 13.333 21.001 13.349C21.137 13.438 21.257 13.532 21.356 13.632C21.378 13.655 21.421 13.666 21.485 13.666C21.525 13.666 21.575 13.662 21.633 13.652C21.764 13.631 21.898 13.591 22.044 13.528C22.264 13.432 22.379 13.35 22.393 13.274C22.399 13.244 22.389 13.213 22.361 13.185C22.257 13.081 22.134 12.982 21.999 12.898C21.949 12.864 21.856 12.857 21.726 12.879C21.603 12.898 21.469 12.938 21.316 13.001C21.229 13.039 21.149 13.083 21.077 13.137Z" fill="white"/>
</g>
</g>
<path d="M33.786 14.822C33.813 14.873 33.897 14.897 34.048 14.897H34.092C34.243 14.897 34.372 14.883 34.472 14.856C34.964 14.732 35.288 14.553 35.439 14.329C35.85 13.696 36.047 13.153 36.026 12.714C36.015 12.401 35.843 12.175 35.515 12.034C35.278 11.932 35 11.88 34.669 11.88H34.648C33.93 11.889 33.28 12.109 32.715 12.537C32.098 12.999 31.746 13.598 31.674 14.317C31.623 14.766 31.76 15.242 32.079 15.742C32.195 15.914 32.346 16.123 32.528 16.361C32.781 16.676 32.913 16.847 32.967 16.929C33.605 17.833 33.823 18.567 33.616 19.106C33.512 19.368 33.376 19.497 33.195 19.497C33.052 19.497 32.878 19.418 32.659 19.254C32.418 19.074 32.272 18.836 32.227 18.549C32.182 18.261 32.237 17.979 32.394 17.692C32.418 17.642 32.421 17.6 32.402 17.567C32.37 17.518 32.286 17.493 32.141 17.493H32.132C31.983 17.496 31.849 17.514 31.726 17.55C31.194 17.679 30.876 17.849 30.756 18.071C30.434 18.672 30.458 19.212 30.825 19.676C31.165 20.107 31.682 20.33 32.359 20.342H32.409C33.222 20.342 34.02 20.014 34.779 19.367C35.207 19.003 35.409 18.548 35.378 18.012C35.354 17.641 35.167 17.191 34.807 16.629L34.797 16.637L34.805 16.629C34.78 16.604 34.345 15.999 33.878 15.352C33.549 14.889 33.362 14.466 33.328 14.093C33.291 13.68 33.376 13.305 33.584 12.975C33.738 12.729 33.907 12.681 34.132 12.814C34.214 12.862 34.266 12.956 34.309 13.049C34.467 13.388 34.295 13.944 33.801 14.701C33.775 14.749 33.768 14.789 33.786 14.822Z" fill="white"/>
<path d="M31.092 12.191C31.052 12.145 30.98 12.121 30.874 12.121C30.77 12.121 30.627 12.145 30.453 12.189C30.221 12.247 30.01 12.327 29.826 12.425C29.613 12.541 29.502 12.64 29.488 12.715C29.289 13.888 29.017 15.17 28.683 16.531C28.552 17.053 28.394 17.652 28.183 18.418C27.915 19.381 27.808 19.965 27.856 20.201C27.877 20.302 27.966 20.356 28.125 20.356C28.268 20.356 28.475 20.311 28.739 20.225C29.297 20.044 29.551 19.853 29.511 19.645C29.471 19.437 29.574 18.895 29.814 18.033C30.004 17.347 30.182 16.664 30.317 16.145C30.647 14.797 30.92 13.514 31.121 12.327C31.13 12.271 31.121 12.224 31.092 12.191Z" fill="white"/>
<path d="M41.667 12.014C41.538 11.552 41.145 11.386 40.504 11.519C40 11.622 39.545 11.826 39.153 12.126C38.882 12.338 38.627 12.622 38.39 12.962C38.691 11.493 38.926 10.443 39.412 8.39C39.426 8.331 39.419 8.287 39.391 8.252C39.355 8.205 39.285 8.184 39.176 8.184C39.069 8.184 38.925 8.205 38.741 8.252C38.506 8.311 38.295 8.39 38.115 8.488C37.912 8.6 37.798 8.696 37.779 8.777C36.661 13.508 36.061 16.733 35.711 19.903C35.709 19.938 35.717 19.964 35.736 19.985C35.765 20.017 35.82 20.037 35.904 20.037C36.03 20.037 36.224 19.997 36.481 19.925C36.995 19.776 37.282 19.618 37.359 19.446C37.409 19.319 37.622 18.663 38.011 17.436C38.389 16.249 38.745 15.247 39.074 14.457C39.422 13.609 39.743 12.978 40.029 12.588C40.062 12.72 40.085 12.936 40.1 13.226C40.115 13.702 40.036 14.536 39.864 15.7C39.82 16.03 39.661 16.665 39.373 17.641C39.135 18.45 39.012 19.111 39.007 19.609C39.007 19.705 39.161 19.716 39.277 19.718C39.433 19.714 39.622 19.684 39.838 19.63C40.382 19.48 40.657 19.291 40.664 19.06C40.668 18.676 40.86 17.833 41.232 16.555C41.349 16.164 41.459 15.609 41.559 14.905C41.642 14.334 41.702 13.835 41.733 13.427C41.781 12.813 41.756 12.336 41.667 12.014Z" fill="white"/>
<path d="M27.727 15.287C27.626 15.259 27.509 15.256 27.377 15.275C26.601 15.376 26.027 15.464 25.715 15.532C26.024 13.941 26.416 12.189 26.881 10.327C27.628 10.142 28.26 10.07 28.758 10.112C28.805 10.117 28.852 10.117 28.897 10.117C29.215 10.117 29.553 10.018 29.902 9.828C30.013 9.766 30.105 9.687 30.186 9.589C30.249 9.519 30.271 9.461 30.253 9.418C30.235 9.376 30.186 9.354 30.098 9.346C29.954 9.335 29.801 9.327 29.643 9.327C28.924 9.327 28.045 9.452 27.037 9.698C27.037 9.689 27.04 9.679 27.042 9.666C27.053 9.635 27.058 9.614 27.06 9.598C27.074 9.54 27.067 9.493 27.04 9.458C27.003 9.409 26.929 9.385 26.818 9.385C26.712 9.385 26.567 9.408 26.389 9.452C26.164 9.509 25.955 9.585 25.77 9.685C25.575 9.8 25.463 9.892 25.432 9.968L25.429 9.975C25.428 9.978 25.428 9.979 25.428 9.982C25.426 9.989 25.412 10.047 25.374 10.191C25.228 10.283 25.139 10.374 25.096 10.47C25.07 10.517 25.068 10.556 25.086 10.589C25.108 10.629 25.162 10.654 25.252 10.664C24.318 14.452 23.656 17.846 23.287 20.757C23.285 20.785 23.291 20.808 23.308 20.829C23.339 20.862 23.4 20.878 23.495 20.878C23.557 20.878 23.632 20.871 23.718 20.857C23.907 20.832 24.066 20.794 24.191 20.75C24.668 20.589 24.923 20.409 24.949 20.213C25.108 18.934 25.324 17.576 25.592 16.174C25.645 16.167 25.807 16.145 26.076 16.108L26.676 16.024C27.155 15.966 27.525 15.807 27.772 15.557C27.839 15.487 27.868 15.431 27.854 15.385C27.843 15.341 27.801 15.308 27.727 15.287Z" fill="white"/>
</svg>
