<svg width="38" height="18" viewBox="0 0 38 18" fill="none" xmlns="http://www.w3.org/2000/svg">
<path d="M10.416 3.383C10.345 3.151 10.067 2.817 9.77 2.543C9.77 2.543 9.77 2.543 9.77 2.542C9.749 2.523 9.728 2.50999 9.707 2.48899C9.668 2.45699 9.631 2.42399 9.592 2.39199C9.561 2.36499 9.529 2.343 9.496 2.32C9.463 2.297 9.432 2.27 9.398 2.25C9.357 2.223 9.321 2.201 9.281 2.181C9.261 2.168 9.239 2.15499 9.218 2.14399C9.162 2.11799 9.111 2.09799 9.065 2.08999C9.451 2.84599 9.002 4.307 8.072 4.539C7.151 4.768 6.649 3.352 6.028 2.772C4.635 1.468 2.027 2.302 0.900004 0.727997C0.886004 0.793997 0.865003 0.868996 0.841003 0.944996C0.837003 0.960996 0.832003 0.973997 0.827003 0.990997C0.803003 1.063 0.778003 1.138 0.749003 1.217C0.740003 1.239 0.732002 1.262 0.724002 1.285C0.703002 1.342 0.681004 1.399 0.658004 1.458C0.397004 2.13 0.0660044 2.9 0.282004 3.39C3.453 0.952996 8.65 4.516 6.249 8.109C6.507 8.32 6.843 8.65899 7.001 9.03399L7.092 8.613C7.695 8.389 8.194 7.527 8.631 7.066C9.063 6.612 9.455 6.03 9.75 5.444C9.99 4.965 10.594 3.955 10.416 3.383Z" fill="#006838"/>
<path d="M14.79 7.064C12.281 5.277 10.36 4.135 11.502 3.394C12.524 2.734 13.299 4.767 16.315 6.62C20.605 9.259 22.846 9.33301 24.251 9.63201C25.089 9.81001 20.515 11.146 14.79 7.064ZM37.509 5.201C37.184 4.142 34.77 8.246 30.241 9.369C25.713 10.493 18.965 7.075 15.627 4.166C12.289 1.254 10.54 2.75 8.94901 5.051C8.94901 5.051 5.65001 9.187 7.81401 11.406C9.98101 13.628 17.804 18.704 24.668 16.428C31.532 14.152 37.833 6.26 37.509 5.201Z" fill="#006838"/>
</svg>
